<?xml version="1.0" encoding="UTF-8"?>
<svg xmlns="http://www.w3.org/2000/svg" xmlns:xlink="http://www.w3.org/1999/xlink" viewBox="0 0 1920 1080">
  <defs>
    <style>
      .cls-1 {
        fill: url(#radial-gradient-13);
      }

      .cls-1, .cls-2, .cls-3, .cls-4, .cls-5, .cls-6, .cls-7, .cls-8, .cls-9, .cls-10, .cls-11, .cls-12, .cls-13, .cls-14, .cls-15, .cls-16, .cls-17, .cls-18 {
        stroke-width: 0px;
      }

      .cls-1, .cls-2, .cls-3, .cls-4, .cls-5, .cls-8, .cls-9, .cls-10, .cls-11, .cls-12, .cls-13, .cls-14, .cls-15, .cls-17, .cls-18 {
        mix-blend-mode: color-dodge;
      }

      .cls-2 {
        fill: url(#radial-gradient-7);
      }

      .cls-19 {
        isolation: isolate;
      }

      .cls-3 {
        fill: url(#radial-gradient-11);
      }

      .cls-4 {
        fill: url(#radial-gradient-10);
      }

      .cls-5 {
        fill: url(#radial-gradient-16);
      }

      .cls-6 {
        fill: url(#radial-gradient);
        mix-blend-mode: lighten;
      }

      .cls-7 {
        fill: none;
      }

      .cls-8 {
        fill: url(#radial-gradient-15);
      }

      .cls-9 {
        fill: url(#radial-gradient-3);
      }

      .cls-10 {
        fill: url(#radial-gradient-5);
      }

      .cls-20 {
        clip-path: url(#clippath);
      }

      .cls-11 {
        fill: url(#radial-gradient-4);
      }

      .cls-12 {
        fill: url(#radial-gradient-2);
      }

      .cls-13 {
        fill: url(#radial-gradient-8);
      }

      .cls-14 {
        fill: url(#radial-gradient-6);
      }

      .cls-15 {
        fill: url(#radial-gradient-9);
      }

      .cls-16 {
        fill: #191919;
      }

      .cls-17 {
        fill: url(#radial-gradient-14);
      }

      .cls-18 {
        fill: url(#radial-gradient-12);
      }
    </style>
    <clipPath id="clippath">
      <rect class="cls-7" y="-100" width="1920" height="1280"/>
    </clipPath>
    <radialGradient id="radial-gradient" cx="970.42" cy="573.87" fx="970.42" fy="573.87" r="1179.24" gradientTransform="translate(1920) rotate(-180) scale(1 -1)" gradientUnits="userSpaceOnUse">
      <stop offset="0" stop-color="#3c2506"/>
      <stop offset="0" stop-color="#3c2506"/>
      <stop offset=".17" stop-color="#76490b"/>
      <stop offset=".29" stop-color="#995f0e"/>
      <stop offset=".35" stop-color="#a76810"/>
      <stop offset=".49" stop-color="#73480b"/>
      <stop offset=".64" stop-color="#422906"/>
      <stop offset=".77" stop-color="#1e1202"/>
      <stop offset=".88" stop-color="#080500"/>
      <stop offset=".95" stop-color="#000"/>
    </radialGradient>
    <radialGradient id="radial-gradient-2" cx="1103.12" cy="379.1" fx="1103.12" fy="379.1" r="8.35" gradientUnits="userSpaceOnUse">
      <stop offset="0" stop-color="#acac40"/>
      <stop offset=".47" stop-color="#52521e"/>
      <stop offset=".81" stop-color="#161608"/>
      <stop offset=".98" stop-color="#000"/>
    </radialGradient>
    <radialGradient id="radial-gradient-3" cx="984.85" cy="473.73" fx="984.85" fy="473.73" r="22.35" gradientUnits="userSpaceOnUse">
      <stop offset="0" stop-color="#acac40"/>
      <stop offset=".11" stop-color="#909035"/>
      <stop offset=".42" stop-color="#434319"/>
      <stop offset=".65" stop-color="#121206"/>
      <stop offset=".76" stop-color="#000"/>
    </radialGradient>
    <radialGradient id="radial-gradient-4" cx="1024.17" cy="720.86" fx="1024.17" fy="720.86" r="22.35" gradientTransform="translate(809.38 -512.85) rotate(45)" gradientUnits="userSpaceOnUse">
      <stop offset="0" stop-color="#acac40"/>
      <stop offset=".07" stop-color="#8f8f35"/>
      <stop offset=".18" stop-color="#636325"/>
      <stop offset=".29" stop-color="#3f3f17"/>
      <stop offset=".41" stop-color="#23230d"/>
      <stop offset=".53" stop-color="#0f0f05"/>
      <stop offset=".64" stop-color="#030301"/>
      <stop offset=".76" stop-color="#000"/>
    </radialGradient>
    <radialGradient id="radial-gradient-5" cx="1121.16" cy="891.5" fx="1121.16" fy="891.5" r="15.93" gradientTransform="translate(1920) rotate(-180) scale(1 -1)" xlink:href="#radial-gradient-3"/>
    <radialGradient id="radial-gradient-6" cx="789.41" cy="244.22" fx="789.41" fy="244.22" r="15.93" xlink:href="#radial-gradient-3"/>
    <radialGradient id="radial-gradient-7" cx="1004.81" cy="711.64" fx="1004.81" fy="711.64" r="50.65" gradientUnits="userSpaceOnUse">
      <stop offset="0" stop-color="#acac40"/>
      <stop offset=".05" stop-color="#9f9f3b"/>
      <stop offset=".29" stop-color="#666626"/>
      <stop offset=".52" stop-color="#3a3a15"/>
      <stop offset=".72" stop-color="#1a1a09"/>
      <stop offset=".89" stop-color="#070702"/>
      <stop offset="1" stop-color="#000"/>
    </radialGradient>
    <radialGradient id="radial-gradient-8" cx="1062.89" cy="677.35" fx="1062.89" fy="677.35" r="50.65" xlink:href="#radial-gradient-7"/>
    <radialGradient id="radial-gradient-9" cx="925.55" cy="846.67" fx="925.55" fy="846.67" r="25.1" gradientTransform="translate(1920) rotate(-180) scale(1 -1)" xlink:href="#radial-gradient-3"/>
    <radialGradient id="radial-gradient-10" cx="512.93" cy="677.05" fx="512.93" fy="677.05" r="50.65" gradientUnits="userSpaceOnUse">
      <stop offset="0" stop-color="#acac40"/>
      <stop offset=".11" stop-color="#909035"/>
      <stop offset=".42" stop-color="#434319"/>
      <stop offset=".65" stop-color="#121206"/>
      <stop offset=".76" stop-color="#000"/>
    </radialGradient>
    <radialGradient id="radial-gradient-11" cx="689.83" cy="642.52" fx="689.83" fy="642.52" r="31.36" xlink:href="#radial-gradient-3"/>
    <radialGradient id="radial-gradient-12" cx="592.73" cy="447.06" fx="592.73" fy="447.06" r="61.54" gradientTransform="translate(893.25 -230.57) rotate(76.99)" gradientUnits="userSpaceOnUse">
      <stop offset="0" stop-color="#acac40"/>
      <stop offset=".11" stop-color="#909035"/>
      <stop offset=".42" stop-color="#434319"/>
      <stop offset=".65" stop-color="#121206"/>
      <stop offset=".76" stop-color="#000"/>
    </radialGradient>
    <radialGradient id="radial-gradient-13" cx="886.24" cy="213.28" fx="886.24" fy="213.28" r="61.54" gradientTransform="translate(952.29 -695.25) rotate(80.73)" xlink:href="#radial-gradient-3"/>
    <radialGradient id="radial-gradient-14" cx="1080.25" cy="347.83" fx="1080.25" fy="347.83" r="61.54" xlink:href="#radial-gradient-3"/>
    <radialGradient id="radial-gradient-15" cx="631.47" cy="812.27" fx="631.47" fy="812.27" r="61.54" gradientTransform="translate(1920) rotate(-180) scale(1 -1)" gradientUnits="userSpaceOnUse">
      <stop offset="0" stop-color="#acac40"/>
      <stop offset=".05" stop-color="#9a9a39"/>
      <stop offset=".23" stop-color="#636325"/>
      <stop offset=".4" stop-color="#383815"/>
      <stop offset=".54" stop-color="#191909"/>
      <stop offset=".67" stop-color="#060602"/>
      <stop offset=".76" stop-color="#000"/>
    </radialGradient>
    <radialGradient id="radial-gradient-16" cx="732.46" cy="846.16" fx="732.46" fy="846.16" r="31.36" gradientTransform="translate(1920) rotate(-180) scale(1 -1)" xlink:href="#radial-gradient-3"/>
  </defs>
  <g class="cls-19">
    <g id="Background">
      <rect class="cls-16" width="1920" height="1080" transform="translate(1920 1080) rotate(180)"/>
    </g>
    <g id="Object">
      <g class="cls-20">
        <path class="cls-6" d="M2178.53-7.03v-37.22l-31.41-18.13v-36.14l-32.23-18.61-31.4,18.13-31.4-18.13-31.4,18.13-31.4-18.13-31.4,18.13-31.4-18.13-31.4,18.13-31.4-18.13-31.4,18.13-31.4-18.13-31.4,18.13-31.4-18.13-31.4,18.13-31.4-18.13-31.4,18.13-31.4-18.13-31.4,18.13-31.4-18.13-31.4,18.13-31.4-18.13-31.4,18.13-31.4-18.13-31.4,18.13-31.4-18.13-31.4,18.13-31.4-18.13-31.4,18.13-31.4-18.13-31.4,18.13-31.4-18.13-31.4,18.13-31.4-18.13-31.4,18.13-31.4-18.13-31.4,18.13-31.4-18.13-31.4,18.13-31.4-18.13-31.4,18.13-31.4-18.13-31.4,18.13-31.4-18.13-31.4,18.13-31.4-18.13-31.4,18.13-31.4-18.13-31.4,18.13-31.4-18.13-31.4,18.13-31.4-18.13-31.4,18.13-31.4-18.13-31.4,18.13-31.4-18.13-31.4,18.13-31.4-18.13-31.4,18.13-31.4-18.13-31.4,18.13-31.4-18.13-31.4,18.13-31.4-18.13-31.4,18.13-31.4-18.13-31.4,18.13-31.4-18.13-31.4,18.13-31.4-18.13-31.4,18.13-31.4-18.13-31.4,18.13-31.4-18.13-32.23,18.61v37.22l31.41,18.14V-7.46l-31.41,18.14v37.22l31.41,18.13v35.71l-31.41,18.13v37.22l31.41,18.14v35.71l-31.41,18.14v37.22l31.41,18.14v35.71l-31.41,18.14v37.22l31.41,18.13v35.71l-31.41,18.13v37.22l31.41,18.13v35.71l-31.41,18.14v37.22l31.41,18.13v35.71l-31.41,18.13v37.22l31.41,18.13v35.71l-31.41,18.13v37.22l31.41,18.13v35.71l-31.41,18.13v37.22l31.41,18.13v35.71l-31.41,18.13v37.22l31.41,18.13v35.71l-31.41,18.13v37.22l31.41,18.13v36.14l32.23,18.61,31.4-18.13,31.4,18.13,31.4-18.13,31.4,18.13,31.4-18.13,31.4,18.13,31.4-18.13,31.4,18.13,31.4-18.13,31.4,18.13,31.4-18.13,31.4,18.13,31.4-18.13,31.4,18.13,31.4-18.13,31.4,18.13,31.4-18.13,31.4,18.13,31.4-18.13,31.4,18.13,31.4-18.13,31.4,18.13,31.4-18.13,31.4,18.13,31.4-18.13,31.4,18.13,31.4-18.13,31.4,18.13,31.4-18.13,31.4,18.13,31.4-18.13,31.4,18.13,31.4-18.13,31.4,18.13,31.4-18.13,31.4,18.13,31.4-18.13,31.4,18.13,31.4-18.13,31.4,18.13,31.4-18.13,31.4,18.13,31.4-18.13,31.4,18.13,31.4-18.13,31.4,18.13,31.4-18.13,31.4,18.13,31.4-18.13,31.4,18.13,31.4-18.13,31.4,18.13,31.4-18.13,31.4,18.13,31.4-18.13,31.4,18.13,31.4-18.13,31.4,18.13,31.4-18.13,31.4,18.13,31.4-18.13,31.4,18.13,31.4-18.13,31.4,18.13,31.4-18.13,31.4,18.13,31.4-18.13,31.4,18.13,31.4-18.13,31.4,18.13,31.4-18.13,31.4,18.13,32.23-18.61v-37.22l-31.41-18.13v-35.71l31.41-18.13v-37.22l-31.41-18.13v-35.71l31.41-18.13v-37.22l-31.41-18.13v-35.71l31.41-18.13v-37.22l-31.41-18.13v-35.71l31.41-18.13v-37.22l-31.41-18.13v-35.71l31.41-18.13v-37.22l-31.41-18.13v-35.71l31.41-18.13v-37.22l-31.41-18.13v-35.71l31.41-18.13v-37.22l-31.41-18.13v-35.71l31.41-18.13v-37.22l-31.41-18.13v-35.71l31.41-18.13v-37.22l-31.41-18.13v-35.71l31.41-18.13v-37.22l-31.41-18.13V11.11l31.41-18.13ZM2082.59,46.86l-30.5,17.61-30.51-17.62V11.67l30.5-17.61,30.5,17.61v35.19ZM2082.59,156.06l-30.5,17.61-30.51-17.62v-35.18l30.5-17.61,30.5,17.61v35.19ZM2082.59,265.25l-30.5,17.61-30.51-17.62v-35.18l30.5-17.61,30.5,17.61v35.19ZM2082.59,374.44l-30.5,17.61-30.51-17.62v-35.18l30.5-17.61,30.5,17.61v35.19ZM2082.59,483.64l-30.5,17.61-30.51-17.62v-35.18l30.5-17.61,30.5,17.61v35.19ZM2082.59,592.83l-30.5,17.61-30.51-17.62v-35.18l30.5-17.61,30.5,17.61v35.19ZM2082.59,702.02l-30.5,17.61-30.51-17.62v-35.18l30.5-17.61,30.5,17.61v35.19ZM2082.59,811.22l-30.5,17.61-30.51-17.62v-35.18l30.5-17.61,30.5,17.61v35.19ZM2082.59,920.41l-30.5,17.61-30.51-17.62v-35.18l30.5-17.61,30.5,17.61v35.19ZM2082.59,1029.61l-30.5,17.61-30.51-17.62v-35.18l30.5-17.61,30.5,17.61v35.19ZM-82.34,1048.72l30.5-17.61,30.51,17.62v35.18l-30.5,17.61-30.5-17.61v-35.19ZM-82.34,939.53l30.5-17.61,30.51,17.62v35.18l-30.5,17.61-30.5-17.61v-35.19ZM-82.34,830.34l30.5-17.61,30.51,17.62v35.18l-30.5,17.61-30.5-17.61v-35.19ZM-82.34,721.14l30.5-17.61,30.51,17.62v35.18l-30.5,17.61-30.5-17.61v-35.19ZM-82.34,611.95l30.5-17.61,30.51,17.61v35.18l-30.5,17.61-30.5-17.61v-35.19ZM-82.34,502.76l30.5-17.61,30.51,17.62v35.18l-30.5,17.61-30.5-17.61v-35.19ZM-82.34,393.56l30.5-17.61,30.51,17.62v35.18l-30.5,17.61-30.5-17.61v-35.19ZM-82.34,284.37l30.5-17.61,30.51,17.62v35.18l-30.5,17.61-30.5-17.61v-35.19ZM-82.34,175.17l30.5-17.61,30.51,17.62v35.18l-30.5,17.61-30.5-17.61v-35.19ZM-82.34,65.98l30.5-17.61,30.51,17.62v35.18l-30.5,17.61-30.5-17.61v-35.19ZM2019.79,156.06l-30.5,17.61-30.51-17.62v-35.18l30.5-17.61,30.5,17.61v35.19ZM2019.79,265.25l-30.5,17.61-30.51-17.62v-35.18l30.5-17.61,30.5,17.61v35.19ZM2019.79,374.44l-30.5,17.61-30.51-17.62v-35.18l30.5-17.61,30.5,17.61v35.19ZM2019.79,483.64l-30.5,17.61-30.51-17.62v-35.18l30.5-17.61,30.5,17.61v35.19ZM2019.79,592.83l-30.5,17.61-30.51-17.62v-35.18l30.5-17.61,30.5,17.61v35.19ZM2019.79,702.02l-30.5,17.61-30.51-17.62v-35.18l30.5-17.61,30.5,17.61v35.19ZM2019.79,811.22l-30.5,17.61-30.51-17.62v-35.18l30.5-17.61,30.5,17.61v35.19ZM2019.79,920.41l-30.5,17.61-30.51-17.62v-35.18l30.5-17.61,30.5,17.61v35.19ZM-19.53,939.53l30.5-17.61,30.51,17.62v35.18l-30.5,17.61-30.5-17.61v-35.19ZM-19.53,830.34l30.5-17.61,30.51,17.62v35.18l-30.5,17.61-30.5-17.61v-35.19ZM-19.53,721.14l30.5-17.61,30.51,17.62v35.18l-30.5,17.61-30.5-17.61v-35.19ZM-19.53,611.95l30.5-17.61,30.51,17.61v35.18l-30.5,17.61-30.5-17.61v-35.19ZM-19.53,502.76l30.5-17.61,30.51,17.62v35.18l-30.5,17.61-30.5-17.61v-35.19ZM-19.53,393.56l30.5-17.61,30.51,17.62v35.18l-30.5,17.61-30.5-17.61v-35.19ZM-19.53,284.37l30.5-17.61,30.51,17.62v35.18l-30.5,17.61-30.5-17.61v-35.19ZM-19.53,175.17l30.5-17.61,30.51,17.62v35.18l-30.5,17.61-30.5-17.61v-35.19ZM1956.98,265.25l-30.5,17.61-30.51-17.62v-35.18l30.5-17.61,30.5,17.61v35.19ZM1956.98,374.44l-30.5,17.61-30.51-17.62v-35.18l30.5-17.61,30.5,17.61v35.19ZM1956.98,483.64l-30.5,17.61-30.51-17.62v-35.18l30.5-17.61,30.5,17.61v35.19ZM1956.98,592.83l-30.5,17.61-30.51-17.62v-35.18l30.5-17.61,30.5,17.61v35.19ZM1956.98,702.02l-30.5,17.61-30.51-17.62v-35.18l30.5-17.61,30.5,17.61v35.19ZM1956.98,811.22l-30.5,17.61-30.51-17.62v-35.18l30.5-17.61,30.5,17.61v35.19ZM43.27,830.34l30.5-17.61,30.51,17.62v35.18l-30.5,17.61-30.5-17.61v-35.19ZM43.27,721.14l30.5-17.61,30.51,17.62v35.18l-30.5,17.61-30.5-17.61v-35.19ZM43.27,611.95l30.5-17.61,30.51,17.61v35.18l-30.5,17.61-30.5-17.61v-35.19ZM43.27,502.76l30.5-17.61,30.51,17.62v35.18l-30.5,17.61-30.5-17.61v-35.19ZM43.27,393.56l30.5-17.61,30.51,17.62v35.18l-30.5,17.61-30.5-17.61v-35.19ZM43.27,284.37l30.5-17.61,30.51,17.62v35.18l-30.5,17.61-30.5-17.61v-35.19ZM1894.18,374.44l-30.5,17.61-30.51-17.62v-35.18l30.5-17.61,30.5,17.61v35.19ZM1894.18,483.64l-30.5,17.61-30.51-17.62v-35.18l30.5-17.61,30.5,17.61v35.19ZM1894.18,592.83l-30.5,17.61-30.51-17.62v-35.18l30.5-17.61,30.5,17.61v35.19ZM1894.18,702.02l-30.5,17.61-30.51-17.62v-35.18l30.5-17.61,30.5,17.61v35.19ZM1894.18,811.22l-30.5,17.61-30.51-17.62v-35.18l30.5-17.61,30.5,17.61v35.19ZM106.08,721.14l30.5-17.61,30.51,17.62v35.18l-30.5,17.61-30.5-17.61v-35.19ZM106.08,611.95l30.5-17.61,30.51,17.61v35.18l-30.5,17.61-30.5-17.61v-35.19ZM106.08,502.76l30.5-17.61,30.51,17.62v35.18l-30.5,17.61-30.5-17.61v-35.19ZM106.08,393.56l30.5-17.61,30.51,17.62v35.18l-30.5,17.61-30.5-17.61v-35.19ZM106.08,284.37l30.5-17.61,30.51,17.62v35.18l-30.5,17.61-30.5-17.61v-35.19ZM1831.38,374.44l-30.5,17.61-30.51-17.62v-35.18l30.5-17.61,30.5,17.61v35.19ZM1831.38,483.64l-30.5,17.61-30.51-17.62v-35.18l30.5-17.61,30.5,17.61v35.19ZM1831.38,592.83l-30.5,17.61-30.51-17.62v-35.18l30.5-17.61,30.5,17.61v35.19ZM1831.38,702.02l-30.5,17.61-30.51-17.62v-35.18l30.5-17.61,30.5,17.61v35.19ZM168.88,611.95l30.5-17.61,30.51,17.61v35.18l-30.5,17.61-30.5-17.61v-35.19ZM168.88,502.76l30.5-17.61,30.51,17.62v35.18l-30.5,17.61-30.5-17.61v-35.19ZM168.88,393.56l30.5-17.61,30.51,17.62v35.18l-30.5,17.61-30.5-17.61v-35.19ZM1768.57,483.64l-30.5,17.61-30.51-17.62v-35.18l30.5-17.61,30.5,17.61v35.19ZM1768.57,592.83l-30.5,17.61-30.51-17.62v-35.18l30.5-17.61,30.5,17.61v35.19ZM231.68,611.95l30.5-17.61,30.51,17.61v35.18l-30.5,17.61-30.5-17.61v-35.19ZM231.68,502.76l30.5-17.61,30.51,17.62v35.18l-30.5,17.61-30.5-17.61v-35.19ZM1674.37,537.95l-30.5,17.61-30.5-17.61v-35.19l30.5-17.61,30.51,17.62v35.18ZM1611.57,537.95l-30.5,17.61-30.5-17.61v-35.19l30.5-17.61,30.51,17.62v35.18ZM1548.77,537.95l-30.5,17.61-30.5-17.61v-35.19l30.5-17.61,30.51,17.62v35.18ZM1485.96,537.95l-30.5,17.61-30.5-17.61v-35.19l30.5-17.61,30.51,17.62v35.18ZM1423.16,537.95l-30.5,17.61-30.5-17.61v-35.19l30.5-17.61,30.51,17.62v35.18ZM1360.35,537.95l-30.5,17.61-30.5-17.61v-35.19l30.5-17.61,30.51,17.62v35.18ZM1297.55,537.95l-30.5,17.61-30.5-17.61v-35.19l30.5-17.61,30.51,17.62v35.18ZM1234.75,537.95l-30.5,17.61-30.5-17.61v-35.19l30.5-17.61,30.51,17.62v35.18ZM1171.94,537.95l-30.5,17.61-30.5-17.61v-35.19l30.5-17.61,30.51,17.62v35.18ZM1109.14,537.95l-30.5,17.61-30.5-17.61v-35.19l30.5-17.61,30.51,17.62v35.18ZM1046.34,537.95l-30.5,17.61-30.5-17.61v-35.19l30.5-17.61,30.51,17.62v35.18ZM983.53,537.95l-30.5,17.61-30.5-17.61v-35.19l30.5-17.61,30.51,17.62v35.18ZM920.73,537.95l-30.5,17.61-30.5-17.61v-35.19l30.5-17.61,30.51,17.62v35.18ZM857.92,537.95l-30.5,17.61-30.5-17.61v-35.19l30.5-17.61,30.51,17.62v35.18ZM795.12,537.95l-30.5,17.61-30.5-17.61v-35.19l30.5-17.61,30.51,17.62v35.18ZM732.32,537.95l-30.5,17.61-30.5-17.61v-35.19l30.5-17.61,30.51,17.62v35.18ZM669.51,537.95l-30.5,17.61-30.5-17.61v-35.19l30.5-17.61,30.51,17.62v35.18ZM606.71,537.95l-30.5,17.61-30.5-17.61v-35.19l30.5-17.61,30.51,17.62v35.18ZM543.91,537.95l-30.5,17.61-30.5-17.61v-35.19l30.5-17.61,30.51,17.62v35.18ZM481.1,537.95l-30.5,17.61-30.5-17.61v-35.19l30.5-17.61,30.51,17.62v35.18ZM418.3,537.95l-30.5,17.61-30.5-17.61v-35.19l30.5-17.61,30.51,17.62v35.18ZM355.5,537.95l-30.5,17.61-30.5-17.61v-35.19l30.5-17.61,30.51,17.62v35.18ZM293.58,540.03l30.5,17.61v35.19l-30.5,17.61-30.51-17.62v-35.18l30.5-17.61ZM325.88,557.64l30.5-17.61,30.5,17.61v35.19l-30.5,17.61-30.51-17.62v-35.18ZM388.68,557.64l30.5-17.61,30.5,17.61v35.19l-30.5,17.61-30.51-17.62v-35.18ZM451.49,557.64l30.5-17.61,30.5,17.61v35.19l-30.5,17.61-30.51-17.62v-35.18ZM514.29,557.64l30.5-17.61,30.5,17.61v35.19l-30.5,17.61-30.51-17.62v-35.18ZM577.1,557.64l30.5-17.61,30.5,17.61v35.19l-30.5,17.61-30.51-17.62v-35.18ZM639.9,557.64l30.5-17.61,30.5,17.61v35.19l-30.5,17.61-30.51-17.62v-35.18ZM702.7,557.64l30.5-17.61,30.5,17.61v35.19l-30.5,17.61-30.51-17.62v-35.18ZM765.51,557.64l30.5-17.61,30.5,17.61v35.19l-30.5,17.61-30.51-17.62v-35.18ZM828.31,557.64l30.5-17.61,30.5,17.61v35.19l-30.5,17.61-30.51-17.62v-35.18ZM891.11,557.64l30.5-17.61,30.5,17.61v35.19l-30.5,17.61-30.51-17.62v-35.18ZM953.92,557.64l30.5-17.61,30.5,17.61v35.19l-30.5,17.61-30.51-17.62v-35.18ZM1016.72,557.64l30.5-17.61,30.5,17.61v35.19l-30.5,17.61-30.51-17.62v-35.18ZM1079.52,557.64l30.5-17.61,30.5,17.61v35.19l-30.5,17.61-30.51-17.62v-35.18ZM1142.33,557.64l30.5-17.61,30.5,17.61v35.19l-30.5,17.61-30.51-17.62v-35.18ZM1205.13,557.64l30.5-17.61,30.5,17.61v35.19l-30.5,17.61-30.51-17.62v-35.18ZM1267.94,557.64l30.5-17.61,30.5,17.61v35.19l-30.5,17.61-30.51-17.62v-35.18ZM1330.74,557.64l30.5-17.61,30.5,17.61v35.19l-30.5,17.61-30.51-17.62v-35.18ZM1393.54,557.64l30.5-17.61,30.5,17.61v35.19l-30.5,17.61-30.51-17.62v-35.18ZM1456.35,557.64l30.5-17.61,30.5,17.61v35.19l-30.5,17.61-30.51-17.62v-35.18ZM1519.15,557.64l30.5-17.61,30.5,17.61v35.19l-30.5,17.61-30.51-17.62v-35.18ZM1581.96,557.64l30.5-17.61,30.5,17.61v35.19l-30.5,17.61-30.51-17.62v-35.18ZM1644.76,557.64l30.5-17.61,30.5,17.61v35.19l-30.5,17.61-30.51-17.62v-35.18ZM1706.67,555.56l-30.5-17.61v-35.19l30.5-17.61,30.51,17.62v35.18l-30.5,17.61ZM1705.77,483.64l-30.5,17.61-30.51-17.62v-35.18l30.5-17.61,30.5,17.61v35.19ZM1642.96,483.64l-30.5,17.61-30.51-17.62v-35.18l30.5-17.61,30.5,17.61v35.19ZM1580.16,483.64l-30.5,17.61-30.51-17.62v-35.18l30.5-17.61,30.5,17.61v35.19ZM1517.36,483.64l-30.5,17.61-30.51-17.62v-35.18l30.5-17.61,30.5,17.61v35.19ZM1454.55,483.64l-30.5,17.61-30.51-17.62v-35.18l30.5-17.61,30.5,17.61v35.19ZM1391.75,483.64l-30.5,17.61-30.51-17.62v-35.18l30.5-17.61,30.5,17.61v35.19ZM1328.95,483.64l-30.5,17.61-30.51-17.62v-35.18l30.5-17.61,30.5,17.61v35.19ZM1266.14,483.64l-30.5,17.61-30.51-17.62v-35.18l30.5-17.61,30.5,17.61v35.19ZM1203.34,483.64l-30.5,17.61-30.51-17.62v-35.18l30.5-17.61,30.5,17.61v35.19ZM1140.53,483.64l-30.5,17.61-30.51-17.62v-35.18l30.5-17.61,30.5,17.61v35.19ZM1077.73,483.64l-30.5,17.61-30.51-17.62v-35.18l30.5-17.61,30.5,17.61v35.19ZM1014.93,483.64l-30.5,17.61-30.51-17.62v-35.18l30.5-17.61,30.5,17.61v35.19ZM952.12,483.64l-30.5,17.61-30.51-17.62v-35.18l30.5-17.61,30.5,17.61v35.19ZM889.32,483.64l-30.5,17.61-30.51-17.62v-35.18l30.5-17.61,30.5,17.61v35.19ZM826.52,483.64l-30.5,17.61-30.51-17.62v-35.18l30.5-17.61,30.5,17.61v35.19ZM763.71,483.64l-30.5,17.61-30.51-17.62v-35.18l30.5-17.61,30.5,17.61v35.19ZM700.91,483.64l-30.5,17.61-30.51-17.62v-35.18l30.5-17.61,30.5,17.61v35.19ZM638.1,483.64l-30.5,17.61-30.51-17.62v-35.18l30.5-17.61,30.5,17.61v35.19ZM575.3,483.64l-30.5,17.61-30.51-17.62v-35.18l30.5-17.61,30.5,17.61v35.19ZM512.5,483.64l-30.5,17.61-30.51-17.62v-35.18l30.5-17.61,30.5,17.61v35.19ZM449.69,483.64l-30.5,17.61-30.51-17.62v-35.18l30.5-17.61,30.5,17.61v35.19ZM386.89,483.64l-30.5,17.61-30.51-17.62v-35.18l30.5-17.61,30.5,17.61v35.19ZM324.09,483.64l-30.5,17.61-30.51-17.62v-35.18l30.5-17.61,30.5,17.61v35.19ZM294.49,611.95l30.5-17.61,30.51,17.61v35.18l-30.5,17.61-30.5-17.61v-35.19ZM357.29,611.95l30.5-17.61,30.51,17.61v35.18l-30.5,17.61-30.5-17.61v-35.19ZM420.09,611.95l30.5-17.61,30.51,17.61v35.18l-30.5,17.61-30.5-17.61v-35.19ZM482.9,611.95l30.5-17.61,30.51,17.61v35.18l-30.5,17.61-30.5-17.61v-35.19ZM545.7,611.95l30.5-17.61,30.51,17.61v35.18l-30.5,17.61-30.5-17.61v-35.19ZM608.51,611.95l30.5-17.61,30.51,17.61v35.18l-30.5,17.61-30.5-17.61v-35.19ZM671.31,611.95l30.5-17.61,30.51,17.61v35.18l-30.5,17.61-30.5-17.61v-35.19ZM734.11,611.95l30.5-17.61,30.51,17.61v35.18l-30.5,17.61-30.5-17.61v-35.19ZM796.92,611.95l30.5-17.61,30.51,17.61v35.18l-30.5,17.61-30.5-17.61v-35.19ZM859.72,611.95l30.5-17.61,30.51,17.61v35.18l-30.5,17.61-30.5-17.61v-35.19ZM922.52,611.95l30.5-17.61,30.51,17.61v35.18l-30.5,17.61-30.5-17.61v-35.19ZM985.33,611.95l30.5-17.61,30.51,17.61v35.18l-30.5,17.61-30.5-17.61v-35.19ZM1048.13,611.95l30.5-17.61,30.51,17.61v35.18l-30.5,17.61-30.5-17.61v-35.19ZM1110.94,611.95l30.5-17.61,30.51,17.61v35.18l-30.5,17.61-30.5-17.61v-35.19ZM1173.74,611.95l30.5-17.61,30.51,17.61v35.18l-30.5,17.61-30.5-17.61v-35.19ZM1236.54,611.95l30.5-17.61,30.51,17.62v35.18l-30.5,17.61-30.5-17.61v-35.19ZM1299.35,611.95l30.5-17.61,30.51,17.61v35.18l-30.5,17.61-30.5-17.61v-35.19ZM1362.15,611.95l30.5-17.61,30.51,17.61v35.18l-30.5,17.61-30.5-17.61v-35.19ZM1424.95,611.95l30.5-17.61,30.51,17.61v35.18l-30.5,17.61-30.5-17.61v-35.19ZM1487.76,611.95l30.5-17.61,30.51,17.61v35.18l-30.5,17.61-30.5-17.61v-35.19ZM1550.56,611.95l30.5-17.61,30.51,17.61v35.18l-30.5,17.61-30.5-17.61v-35.19ZM1613.37,611.95l30.5-17.61,30.51,17.61v35.18l-30.5,17.61-30.5-17.61v-35.19ZM1676.17,611.95l30.5-17.61,30.51,17.61v35.18l-30.5,17.61-30.5-17.61v-35.19ZM230.78,430.84l30.5,17.61v35.19l-30.5,17.61-30.51-17.62v-35.18l30.5-17.61ZM230.78,540.03l30.5,17.61v35.19l-30.5,17.61-30.51-17.62v-35.18l30.5-17.61ZM1769.48,664.75l-30.5-17.61v-35.19l30.5-17.61,30.51,17.61v35.18l-30.5,17.61ZM1769.48,555.56l-30.5-17.61v-35.19l30.5-17.61,30.51,17.62v35.18l-30.5,17.61ZM1769.48,446.36l-30.5-17.61v-35.19l30.5-17.61,30.51,17.62v35.18l-30.5,17.61ZM1737.18,428.75l-30.5,17.61-30.5-17.61v-35.19l30.5-17.61,30.51,17.62v35.18ZM1674.37,428.75l-30.5,17.61-30.5-17.61v-35.19l30.5-17.61,30.51,17.62v35.18ZM1611.57,428.75l-30.5,17.61-30.5-17.61v-35.19l30.5-17.61,30.51,17.62v35.18ZM1548.77,428.75l-30.5,17.61-30.5-17.61v-35.19l30.5-17.61,30.51,17.62v35.18ZM1485.96,428.75l-30.5,17.61-30.5-17.61v-35.19l30.5-17.61,30.51,17.62v35.18ZM1423.16,428.75l-30.5,17.61-30.5-17.61v-35.19l30.5-17.61,30.51,17.62v35.18ZM1360.35,428.75l-30.5,17.61-30.5-17.61v-35.19l30.5-17.61,30.51,17.62v35.18ZM1297.55,428.75l-30.5,17.61-30.5-17.61v-35.19l30.5-17.61,30.51,17.62v35.18ZM1234.75,428.75l-30.5,17.61-30.5-17.61v-35.19l30.5-17.61,30.51,17.62v35.18ZM1171.94,428.75l-30.5,17.61-30.5-17.61v-35.19l30.5-17.61,30.51,17.62v35.18ZM1109.14,428.75l-30.5,17.61-30.5-17.61v-35.19l30.5-17.61,30.51,17.62v35.18ZM1046.34,428.75l-30.5,17.61-30.5-17.61v-35.19l30.5-17.61,30.51,17.62v35.18ZM983.53,428.75l-30.5,17.61-30.5-17.61v-35.19l30.5-17.61,30.51,17.62v35.18ZM920.73,428.75l-30.5,17.61-30.5-17.61v-35.19l30.5-17.61,30.51,17.62v35.18ZM857.92,428.75l-30.5,17.61-30.5-17.61v-35.19l30.5-17.61,30.51,17.62v35.18ZM795.12,428.75l-30.5,17.61-30.5-17.61v-35.19l30.5-17.61,30.51,17.62v35.18ZM732.32,428.75l-30.5,17.61-30.5-17.61v-35.19l30.5-17.61,30.51,17.62v35.18ZM669.51,428.75l-30.5,17.61-30.5-17.61v-35.19l30.5-17.61,30.51,17.62v35.18ZM606.71,428.75l-30.5,17.61-30.5-17.61v-35.19l30.5-17.61,30.51,17.62v35.18ZM543.91,428.75l-30.5,17.61-30.5-17.61v-35.19l30.5-17.61,30.51,17.62v35.18ZM481.1,428.75l-30.5,17.61-30.5-17.61v-35.19l30.5-17.61,30.51,17.62v35.18ZM418.3,428.75l-30.5,17.61-30.5-17.61v-35.19l30.5-17.61,30.51,17.62v35.18ZM355.5,428.75l-30.5,17.61-30.5-17.61v-35.19l30.5-17.61,30.51,17.62v35.18ZM292.69,428.75l-30.5,17.61-30.5-17.61v-35.19l30.5-17.61,30.51,17.62v35.18ZM200.27,666.83l30.5-17.61,30.5,17.61v35.19l-30.5,17.61-30.51-17.62v-35.18ZM263.08,666.83l30.5-17.61,30.5,17.61v35.19l-30.5,17.61-30.51-17.62v-35.18ZM325.88,666.83l30.5-17.61,30.5,17.61v35.19l-30.5,17.61-30.51-17.62v-35.18ZM388.68,666.83l30.5-17.61,30.5,17.61v35.19l-30.5,17.61-30.51-17.62v-35.18ZM451.49,666.83l30.5-17.61,30.5,17.61v35.19l-30.5,17.61-30.51-17.62v-35.18ZM514.29,666.83l30.5-17.61,30.5,17.61v35.19l-30.5,17.61-30.51-17.62v-35.18ZM577.1,666.83l30.5-17.61,30.5,17.61v35.19l-30.5,17.61-30.51-17.62v-35.18ZM639.9,666.83l30.5-17.61,30.5,17.61v35.19l-30.5,17.61-30.51-17.62v-35.18ZM702.7,666.83l30.5-17.61,30.5,17.61v35.19l-30.5,17.61-30.51-17.62v-35.18ZM765.51,666.83l30.5-17.61,30.5,17.61v35.19l-30.5,17.61-30.51-17.62v-35.18ZM828.31,666.83l30.5-17.61,30.5,17.61v35.19l-30.5,17.61-30.51-17.62v-35.18ZM891.11,666.83l30.5-17.61,30.5,17.61v35.19l-30.5,17.61-30.51-17.62v-35.18ZM953.92,666.83l30.5-17.61,30.5,17.61v35.19l-30.5,17.61-30.51-17.62v-35.18ZM1016.72,666.83l30.5-17.61,30.5,17.61v35.19l-30.5,17.61-30.51-17.62v-35.18ZM1079.52,666.83l30.5-17.61,30.5,17.61v35.19l-30.5,17.61-30.51-17.62v-35.18ZM1142.33,666.83l30.5-17.61,30.5,17.61v35.19l-30.5,17.61-30.51-17.62v-35.18ZM1205.13,666.83l30.5-17.61,30.5,17.61v35.19l-30.5,17.61-30.51-17.62v-35.18ZM1267.94,666.83l30.5-17.61,30.5,17.61v35.19l-30.5,17.61-30.51-17.62v-35.18ZM1330.74,666.83l30.5-17.61,30.5,17.61v35.19l-30.5,17.61-30.51-17.62v-35.18ZM1393.54,666.83l30.5-17.61,30.5,17.61v35.19l-30.5,17.61-30.51-17.62v-35.18ZM1456.35,666.83l30.5-17.61,30.5,17.61v35.19l-30.5,17.61-30.51-17.62v-35.18ZM1519.15,666.83l30.5-17.61,30.5,17.61v35.19l-30.5,17.61-30.51-17.62v-35.18ZM1581.96,666.83l30.5-17.61,30.5,17.61v35.19l-30.5,17.61-30.51-17.62v-35.18ZM1644.76,666.83l30.5-17.61,30.5,17.61v35.19l-30.5,17.61-30.51-17.62v-35.18ZM1707.56,666.83l30.5-17.61,30.5,17.61v35.19l-30.5,17.61-30.51-17.62v-35.18ZM1768.57,374.44l-30.5,17.61-30.51-17.62v-35.18l30.5-17.61,30.5,17.61v35.19ZM1705.77,374.44l-30.5,17.61-30.51-17.62v-35.18l30.5-17.61,30.5,17.61v35.19ZM1642.96,374.44l-30.5,17.61-30.51-17.62v-35.18l30.5-17.61,30.5,17.61v35.19ZM1580.16,374.44l-30.5,17.61-30.51-17.62v-35.18l30.5-17.61,30.5,17.61v35.19ZM1517.36,374.44l-30.5,17.61-30.51-17.62v-35.18l30.5-17.61,30.5,17.61v35.19ZM1454.55,374.44l-30.5,17.61-30.51-17.62v-35.18l30.5-17.61,30.5,17.61v35.19ZM1391.75,374.44l-30.5,17.61-30.51-17.62v-35.18l30.5-17.61,30.5,17.61v35.19ZM1328.95,374.44l-30.5,17.61-30.51-17.62v-35.18l30.5-17.61,30.5,17.61v35.19ZM1266.14,374.44l-30.5,17.61-30.51-17.62v-35.18l30.5-17.61,30.5,17.61v35.19ZM1203.34,374.44l-30.5,17.61-30.51-17.62v-35.18l30.5-17.61,30.5,17.61v35.19ZM1140.53,374.44l-30.5,17.61-30.51-17.62v-35.18l30.5-17.61,30.5,17.61v35.19ZM1077.73,374.44l-30.5,17.61-30.51-17.62v-35.18l30.5-17.61,30.5,17.61v35.19ZM1014.93,374.44l-30.5,17.61-30.51-17.62v-35.18l30.5-17.61,30.5,17.61v35.19ZM952.12,374.44l-30.5,17.61-30.51-17.62v-35.18l30.5-17.61,30.5,17.61v35.19ZM889.32,374.44l-30.5,17.61-30.51-17.62v-35.18l30.5-17.61,30.5,17.61v35.19ZM826.52,374.44l-30.5,17.61-30.51-17.62v-35.18l30.5-17.61,30.5,17.61v35.19ZM763.71,374.44l-30.5,17.61-30.51-17.62v-35.18l30.5-17.61,30.5,17.61v35.19ZM700.91,374.44l-30.5,17.61-30.51-17.62v-35.18l30.5-17.61,30.5,17.61v35.19ZM638.1,374.44l-30.5,17.61-30.51-17.62v-35.18l30.5-17.61,30.5,17.61v35.19ZM575.3,374.44l-30.5,17.61-30.51-17.62v-35.18l30.5-17.61,30.5,17.61v35.19ZM512.5,374.44l-30.5,17.61-30.51-17.62v-35.18l30.5-17.61,30.5,17.61v35.19ZM449.69,374.44l-30.5,17.61-30.51-17.62v-35.18l30.5-17.61,30.5,17.61v35.19ZM386.89,374.44l-30.5,17.61-30.51-17.62v-35.18l30.5-17.61,30.5,17.61v35.19ZM324.09,374.44l-30.5,17.61-30.51-17.62v-35.18l30.5-17.61,30.5,17.61v35.19ZM261.28,374.44l-30.5,17.61-30.51-17.62v-35.18l30.5-17.61,30.5,17.61v35.19ZM168.88,721.14l30.5-17.61,30.51,17.62v35.18l-30.5,17.61-30.5-17.61v-35.19ZM231.68,721.14l30.5-17.61,30.51,17.62v35.18l-30.5,17.61-30.5-17.61v-35.19ZM294.49,721.14l30.5-17.61,30.51,17.62v35.18l-30.5,17.61-30.5-17.61v-35.19ZM357.29,721.14l30.5-17.61,30.51,17.62v35.18l-30.5,17.61-30.5-17.61v-35.19ZM420.09,721.14l30.5-17.61,30.51,17.62v35.18l-30.5,17.61-30.5-17.61v-35.19ZM482.9,721.14l30.5-17.61,30.51,17.62v35.18l-30.5,17.61-30.5-17.61v-35.19ZM545.7,721.14l30.5-17.61,30.51,17.62v35.18l-30.5,17.61-30.5-17.61v-35.19ZM608.51,721.14l30.5-17.61,30.51,17.62v35.18l-30.5,17.61-30.5-17.61v-35.19ZM671.31,721.14l30.5-17.61,30.51,17.62v35.18l-30.5,17.61-30.5-17.61v-35.19ZM734.11,721.14l30.5-17.61,30.51,17.62v35.18l-30.5,17.61-30.5-17.61v-35.19ZM796.92,721.14l30.5-17.61,30.51,17.62v35.18l-30.5,17.61-30.5-17.61v-35.19ZM859.72,721.14l30.5-17.61,30.51,17.62v35.18l-30.5,17.61-30.5-17.61v-35.19ZM922.52,721.14l30.5-17.61,30.51,17.62v35.18l-30.5,17.61-30.5-17.61v-35.19ZM985.33,721.14l30.5-17.61,30.51,17.62v35.18l-30.5,17.61-30.5-17.61v-35.19ZM1048.13,721.14l30.5-17.61,30.51,17.62v35.18l-30.5,17.61-30.5-17.61v-35.19ZM1110.94,721.14l30.5-17.61,30.51,17.62v35.18l-30.5,17.61-30.5-17.61v-35.19ZM1173.74,721.14l30.5-17.61,30.51,17.62v35.18l-30.5,17.61-30.5-17.61v-35.19ZM1236.54,721.14l30.5-17.61,30.51,17.62v35.18l-30.5,17.61-30.5-17.61v-35.19ZM1299.35,721.14l30.5-17.61,30.51,17.62v35.18l-30.5,17.61-30.5-17.61v-35.19ZM1362.15,721.14l30.5-17.61,30.51,17.62v35.18l-30.5,17.61-30.5-17.61v-35.19ZM1424.95,721.14l30.5-17.61,30.51,17.62v35.18l-30.5,17.61-30.5-17.61v-35.19ZM1487.76,721.14l30.5-17.61,30.51,17.62v35.18l-30.5,17.61-30.5-17.61v-35.19ZM1550.56,721.14l30.5-17.61,30.51,17.62v35.18l-30.5,17.61-30.5-17.61v-35.19ZM1613.37,721.14l30.5-17.61,30.51,17.62v35.18l-30.5,17.61-30.5-17.61v-35.19ZM1676.17,721.14l30.5-17.61,30.51,17.62v35.18l-30.5,17.61-30.5-17.61v-35.19ZM1738.97,721.14l30.5-17.61,30.51,17.62v35.18l-30.5,17.61-30.5-17.61v-35.19ZM167.97,321.64l30.5,17.61v35.19l-30.5,17.61-30.51-17.62v-35.18l30.5-17.61ZM167.97,430.84l30.5,17.61v35.19l-30.5,17.61-30.51-17.62v-35.18l30.5-17.61ZM167.97,540.03l30.5,17.61v35.19l-30.5,17.61-30.51-17.62v-35.18l30.5-17.61ZM167.97,649.22l30.5,17.61v35.19l-30.5,17.61-30.51-17.62v-35.18l30.5-17.61ZM1832.28,773.94l-30.5-17.61v-35.19l30.5-17.61,30.51,17.62v35.18l-30.5,17.61ZM1832.28,664.75l-30.5-17.61v-35.19l30.5-17.61,30.51,17.61v35.18l-30.5,17.61ZM1832.28,555.56l-30.5-17.61v-35.19l30.5-17.61,30.51,17.62v35.18l-30.5,17.61ZM1832.28,446.36l-30.5-17.61v-35.19l30.5-17.61,30.51,17.62v35.18l-30.5,17.61ZM1862.79,319.56l-30.5,17.61-30.5-17.61v-35.19l30.5-17.61,30.51,17.62v35.18ZM1799.98,319.56l-30.5,17.61-30.5-17.61v-35.19l30.5-17.61,30.51,17.62v35.18ZM1737.18,319.56l-30.5,17.61-30.5-17.61v-35.19l30.5-17.61,30.51,17.62v35.18ZM1674.37,319.56l-30.5,17.61-30.5-17.61v-35.19l30.5-17.61,30.51,17.62v35.18ZM1611.57,319.56l-30.5,17.61-30.5-17.61v-35.19l30.5-17.61,30.51,17.62v35.18ZM1548.77,319.56l-30.5,17.61-30.5-17.61v-35.19l30.5-17.61,30.51,17.62v35.18ZM1485.96,319.56l-30.5,17.61-30.5-17.61v-35.19l30.5-17.61,30.51,17.62v35.18ZM1423.16,319.56l-30.5,17.61-30.5-17.61v-35.19l30.5-17.61,30.51,17.62v35.18ZM1360.35,319.56l-30.5,17.61-30.5-17.61v-35.19l30.5-17.61,30.51,17.62v35.18ZM1297.55,319.56l-30.5,17.61-30.5-17.61v-35.19l30.5-17.61,30.51,17.62v35.18ZM1234.75,319.56l-30.5,17.61-30.5-17.61v-35.19l30.5-17.61,30.51,17.62v35.18ZM1171.94,319.56l-30.5,17.61-30.5-17.61v-35.19l30.5-17.61,30.51,17.62v35.18ZM1109.14,319.56l-30.5,17.61-30.5-17.61v-35.19l30.5-17.61,30.51,17.62v35.18ZM1046.34,319.56l-30.5,17.61-30.5-17.61v-35.19l30.5-17.61,30.51,17.62v35.18ZM983.53,319.56l-30.5,17.61-30.5-17.61v-35.19l30.5-17.61,30.51,17.62v35.18ZM920.73,319.56l-30.5,17.61-30.5-17.61v-35.19l30.5-17.61,30.51,17.62v35.18ZM857.92,319.56l-30.5,17.61-30.5-17.61v-35.19l30.5-17.61,30.51,17.62v35.18ZM795.12,319.56l-30.5,17.61-30.5-17.61v-35.19l30.5-17.61,30.51,17.62v35.18ZM732.32,319.56l-30.5,17.61-30.5-17.61v-35.19l30.5-17.61,30.51,17.62v35.18ZM669.51,319.56l-30.5,17.61-30.5-17.61v-35.19l30.5-17.61,30.51,17.62v35.18ZM606.71,319.56l-30.5,17.61-30.5-17.61v-35.19l30.5-17.61,30.51,17.62v35.18ZM543.91,319.56l-30.5,17.61-30.5-17.61v-35.19l30.5-17.61,30.51,17.62v35.18ZM481.1,319.56l-30.5,17.61-30.5-17.61v-35.19l30.5-17.61,30.51,17.62v35.18ZM418.3,319.56l-30.5,17.61-30.5-17.61v-35.19l30.5-17.61,30.51,17.62v35.18ZM355.5,319.56l-30.5,17.61-30.5-17.61v-35.19l30.5-17.61,30.51,17.62v35.18ZM292.69,319.56l-30.5,17.61-30.5-17.61v-35.19l30.5-17.61,30.51,17.62v35.18ZM229.89,319.56l-30.5,17.61-30.5-17.61v-35.19l30.5-17.61,30.51,17.62v35.18ZM137.47,776.03l30.5-17.61,30.5,17.61v35.19l-30.5,17.61-30.51-17.62v-35.18ZM200.27,776.03l30.5-17.61,30.5,17.61v35.19l-30.5,17.61-30.51-17.62v-35.18ZM263.08,776.03l30.5-17.61,30.5,17.61v35.19l-30.5,17.61-30.51-17.62v-35.18ZM325.88,776.03l30.5-17.61,30.5,17.61v35.19l-30.5,17.61-30.51-17.62v-35.18ZM388.68,776.03l30.5-17.61,30.5,17.61v35.19l-30.5,17.61-30.51-17.62v-35.18ZM451.49,776.03l30.5-17.61,30.5,17.61v35.19l-30.5,17.61-30.51-17.62v-35.18ZM514.29,776.03l30.5-17.61,30.5,17.61v35.19l-30.5,17.61-30.51-17.62v-35.18ZM577.1,776.03l30.5-17.61,30.5,17.61v35.19l-30.5,17.61-30.51-17.62v-35.18ZM639.9,776.03l30.5-17.61,30.5,17.61v35.19l-30.5,17.61-30.51-17.62v-35.18ZM702.7,776.03l30.5-17.61,30.5,17.61v35.19l-30.5,17.61-30.51-17.62v-35.18ZM765.51,776.03l30.5-17.61,30.5,17.61v35.19l-30.5,17.61-30.51-17.62v-35.18ZM828.31,776.03l30.5-17.61,30.5,17.61v35.19l-30.5,17.61-30.51-17.62v-35.18ZM891.11,776.03l30.5-17.61,30.5,17.61v35.19l-30.5,17.61-30.51-17.62v-35.18ZM953.92,776.03l30.5-17.61,30.5,17.61v35.19l-30.5,17.61-30.51-17.62v-35.18ZM1016.72,776.03l30.5-17.61,30.5,17.61v35.19l-30.5,17.61-30.51-17.62v-35.18ZM1079.52,776.03l30.5-17.61,30.5,17.61v35.19l-30.5,17.61-30.51-17.62v-35.18ZM1142.33,776.03l30.5-17.61,30.5,17.61v35.19l-30.5,17.61-30.51-17.62v-35.18ZM1205.13,776.03l30.5-17.61,30.5,17.61v35.19l-30.5,17.61-30.51-17.62v-35.18ZM1267.94,776.03l30.5-17.61,30.5,17.61v35.19l-30.5,17.61-30.51-17.62v-35.18ZM1330.74,776.03l30.5-17.61,30.5,17.61v35.19l-30.5,17.61-30.51-17.62v-35.18ZM1393.54,776.03l30.5-17.61,30.5,17.61v35.19l-30.5,17.61-30.51-17.62v-35.18ZM1456.35,776.03l30.5-17.61,30.5,17.61v35.19l-30.5,17.61-30.51-17.62v-35.18ZM1519.15,776.03l30.5-17.61,30.5,17.61v35.19l-30.5,17.61-30.51-17.62v-35.18ZM1581.96,776.03l30.5-17.61,30.5,17.61v35.19l-30.5,17.61-30.51-17.62v-35.18ZM1644.76,776.03l30.5-17.61,30.5,17.61v35.19l-30.5,17.61-30.51-17.62v-35.18ZM1707.56,776.03l30.5-17.61,30.5,17.61v35.19l-30.5,17.61-30.51-17.62v-35.18ZM1770.37,776.03l30.5-17.61,30.5,17.61v35.19l-30.5,17.61-30.51-17.62v-35.18ZM1894.18,265.25l-30.5,17.61-30.51-17.62v-35.18l30.5-17.61,30.5,17.61v35.19ZM1831.38,265.25l-30.5,17.61-30.51-17.62v-35.18l30.5-17.61,30.5,17.61v35.19ZM1768.57,265.25l-30.5,17.61-30.51-17.62v-35.18l30.5-17.61,30.5,17.61v35.19ZM1705.77,265.25l-30.5,17.61-30.51-17.62v-35.18l30.5-17.61,30.5,17.61v35.19ZM1642.96,265.25l-30.5,17.61-30.51-17.62v-35.18l30.5-17.61,30.5,17.61v35.19ZM1580.16,265.25l-30.5,17.61-30.51-17.62v-35.18l30.5-17.61,30.5,17.61v35.19ZM1517.36,265.25l-30.5,17.61-30.51-17.62v-35.18l30.5-17.61,30.5,17.61v35.19ZM1454.55,265.25l-30.5,17.61-30.51-17.62v-35.18l30.5-17.61,30.5,17.61v35.19ZM1391.75,265.25l-30.5,17.61-30.51-17.62v-35.18l30.5-17.61,30.5,17.61v35.19ZM1328.95,265.25l-30.5,17.61-30.51-17.62v-35.18l30.5-17.61,30.5,17.61v35.19ZM1266.14,265.25l-30.5,17.61-30.51-17.62v-35.18l30.5-17.61,30.5,17.61v35.19ZM1203.34,265.25l-30.5,17.61-30.51-17.62v-35.18l30.5-17.61,30.5,17.61v35.19ZM1140.53,265.25l-30.5,17.61-30.51-17.62v-35.18l30.5-17.61,30.5,17.61v35.19ZM1077.73,265.25l-30.5,17.61-30.51-17.62v-35.18l30.5-17.61,30.5,17.61v35.19ZM1014.93,265.25l-30.5,17.61-30.51-17.62v-35.18l30.5-17.61,30.5,17.61v35.19ZM952.12,265.25l-30.5,17.61-30.51-17.62v-35.18l30.5-17.61,30.5,17.61v35.19ZM889.32,265.25l-30.5,17.61-30.51-17.62v-35.18l30.5-17.61,30.5,17.61v35.19ZM826.52,265.25l-30.5,17.61-30.51-17.62v-35.18l30.5-17.61,30.5,17.61v35.19ZM763.71,265.25l-30.5,17.61-30.51-17.62v-35.18l30.5-17.61,30.5,17.61v35.19ZM700.91,265.25l-30.5,17.61-30.51-17.62v-35.18l30.5-17.61,30.5,17.61v35.19ZM638.1,265.25l-30.5,17.61-30.51-17.62v-35.18l30.5-17.61,30.5,17.61v35.19ZM575.3,265.25l-30.5,17.61-30.51-17.62v-35.18l30.5-17.61,30.5,17.61v35.19ZM512.5,265.25l-30.5,17.61-30.51-17.62v-35.18l30.5-17.61,30.5,17.61v35.19ZM449.69,265.25l-30.5,17.61-30.51-17.62v-35.18l30.5-17.61,30.5,17.61v35.19ZM386.89,265.25l-30.5,17.61-30.51-17.62v-35.18l30.5-17.61,30.5,17.61v35.19ZM324.09,265.25l-30.5,17.61-30.51-17.62v-35.18l30.5-17.61,30.5,17.61v35.19ZM261.28,265.25l-30.5,17.61-30.51-17.62v-35.18l30.5-17.61,30.5,17.61v35.19ZM198.48,265.25l-30.5,17.61-30.51-17.62v-35.18l30.5-17.61,30.5,17.61v35.19ZM135.67,265.25l-30.5,17.61-30.51-17.62v-35.18l30.5-17.61,30.5,17.61v35.19ZM105.17,321.64l30.5,17.61v35.19l-30.5,17.61-30.51-17.62v-35.18l30.5-17.61ZM105.17,430.84l30.5,17.61v35.19l-30.5,17.61-30.51-17.62v-35.18l30.5-17.61ZM105.17,540.03l30.5,17.61v35.19l-30.5,17.61-30.51-17.62v-35.18l30.5-17.61ZM105.17,649.22l30.5,17.61v35.19l-30.5,17.61-30.51-17.62v-35.18l30.5-17.61ZM105.17,758.42l30.5,17.61v35.19l-30.5,17.61-30.51-17.62v-35.18l30.5-17.61ZM106.08,830.34l30.5-17.61,30.51,17.62v35.18l-30.5,17.61-30.5-17.61v-35.19ZM168.88,830.34l30.5-17.61,30.51,17.62v35.18l-30.5,17.61-30.5-17.61v-35.19ZM231.68,830.34l30.5-17.61,30.51,17.62v35.18l-30.5,17.61-30.5-17.61v-35.19ZM294.49,830.34l30.5-17.61,30.51,17.62v35.18l-30.5,17.61-30.5-17.61v-35.19ZM357.29,830.34l30.5-17.61,30.51,17.62v35.18l-30.5,17.61-30.5-17.61v-35.19ZM420.09,830.34l30.5-17.61,30.51,17.62v35.18l-30.5,17.61-30.5-17.61v-35.19ZM482.9,830.34l30.5-17.61,30.51,17.62v35.18l-30.5,17.61-30.5-17.61v-35.19ZM545.7,830.34l30.5-17.61,30.51,17.62v35.18l-30.5,17.61-30.5-17.61v-35.19ZM608.51,830.34l30.5-17.61,30.51,17.62v35.18l-30.5,17.61-30.5-17.61v-35.19ZM671.31,830.34l30.5-17.61,30.51,17.62v35.18l-30.5,17.61-30.5-17.61v-35.19ZM734.11,830.34l30.5-17.61,30.51,17.62v35.18l-30.5,17.61-30.5-17.61v-35.19ZM796.92,830.34l30.5-17.61,30.51,17.62v35.18l-30.5,17.61-30.5-17.61v-35.19ZM859.72,830.34l30.5-17.61,30.51,17.62v35.18l-30.5,17.61-30.5-17.61v-35.19ZM922.52,830.34l30.5-17.61,30.51,17.62v35.18l-30.5,17.61-30.5-17.61v-35.19ZM985.33,830.33l30.5-17.61,30.51,17.62v35.18l-30.5,17.61-30.5-17.61v-35.19ZM1048.13,830.34l30.5-17.61,30.51,17.62v35.18l-30.5,17.61-30.5-17.61v-35.19ZM1110.94,830.33l30.5-17.61,30.51,17.62v35.18l-30.5,17.61-30.5-17.61v-35.19ZM1173.74,830.34l30.5-17.61,30.51,17.62v35.18l-30.5,17.61-30.5-17.61v-35.19ZM1236.54,830.34l30.5-17.61,30.51,17.62v35.18l-30.5,17.61-30.5-17.61v-35.19ZM1299.35,830.33l30.5-17.61,30.51,17.62v35.18l-30.5,17.61-30.5-17.61v-35.19ZM1362.15,830.34l30.5-17.61,30.51,17.62v35.18l-30.5,17.61-30.5-17.61v-35.19ZM1424.95,830.33l30.5-17.61,30.51,17.62v35.18l-30.5,17.61-30.5-17.61v-35.19ZM1487.76,830.34l30.5-17.61,30.51,17.62v35.18l-30.5,17.61-30.5-17.61v-35.19ZM1550.56,830.34l30.5-17.61,30.51,17.62v35.18l-30.5,17.61-30.5-17.61v-35.19ZM1613.37,830.34l30.5-17.61,30.51,17.62v35.18l-30.5,17.61-30.5-17.61v-35.19ZM1676.17,830.34l30.5-17.61,30.51,17.62v35.18l-30.5,17.61-30.5-17.61v-35.19ZM1738.97,830.33l30.5-17.61,30.51,17.62v35.18l-30.5,17.61-30.5-17.61v-35.19ZM1801.78,830.34l30.5-17.61,30.51,17.62v35.18l-30.5,17.61-30.5-17.61v-35.19ZM1864.58,830.34l30.5-17.61,30.51,17.62v35.18l-30.5,17.61-30.5-17.61v-35.19ZM1895.08,773.94l-30.5-17.61v-35.19l30.5-17.61,30.51,17.62v35.18l-30.5,17.61ZM1895.08,664.75l-30.5-17.61v-35.19l30.5-17.61,30.51,17.61v35.18l-30.5,17.61ZM1895.08,555.56l-30.5-17.61v-35.19l30.5-17.61,30.51,17.62v35.18l-30.5,17.61ZM1895.08,446.36l-30.5-17.61v-35.19l30.5-17.61,30.51,17.62v35.18l-30.5,17.61ZM1895.08,337.17l-30.5-17.61v-35.19l30.5-17.61,30.51,17.62v35.18l-30.5,17.61ZM1925.59,210.36l-30.5,17.61-30.5-17.61v-35.19l30.5-17.61,30.51,17.62v35.18ZM1862.79,210.36l-30.5,17.61-30.5-17.61v-35.19l30.5-17.61,30.51,17.62v35.18ZM1799.98,210.36l-30.5,17.61-30.5-17.61v-35.19l30.5-17.61,30.51,17.62v35.18ZM1737.18,210.36l-30.5,17.61-30.5-17.61v-35.19l30.5-17.61,30.51,17.62v35.18ZM1674.37,210.36l-30.5,17.61-30.5-17.61v-35.19l30.5-17.61,30.51,17.62v35.18ZM1611.57,210.36l-30.5,17.61-30.5-17.61v-35.19l30.5-17.61,30.51,17.62v35.18ZM1548.77,210.36l-30.5,17.61-30.5-17.61v-35.19l30.5-17.61,30.51,17.62v35.18ZM1485.96,210.36l-30.5,17.61-30.5-17.61v-35.19l30.5-17.61,30.51,17.62v35.18ZM1423.16,210.36l-30.5,17.61-30.5-17.61v-35.19l30.5-17.61,30.51,17.62v35.18ZM1360.35,210.36l-30.5,17.61-30.5-17.61v-35.19l30.5-17.61,30.51,17.62v35.18ZM1297.55,210.36l-30.5,17.61-30.5-17.61v-35.19l30.5-17.61,30.51,17.62v35.18ZM1234.75,210.36l-30.5,17.61-30.5-17.61v-35.19l30.5-17.61,30.51,17.62v35.18ZM1171.94,210.36l-30.5,17.61-30.5-17.61v-35.19l30.5-17.61,30.51,17.62v35.18ZM1109.14,210.36l-30.5,17.61-30.5-17.61v-35.19l30.5-17.61,30.51,17.62v35.18ZM1046.34,210.36l-30.5,17.61-30.5-17.61v-35.19l30.5-17.61,30.51,17.62v35.18ZM983.53,210.36l-30.5,17.61-30.5-17.61v-35.19l30.5-17.61,30.51,17.62v35.18ZM920.73,210.36l-30.5,17.61-30.5-17.61v-35.19l30.5-17.61,30.51,17.62v35.18ZM857.92,210.36l-30.5,17.61-30.5-17.61v-35.19l30.5-17.61,30.51,17.62v35.18ZM795.12,210.36l-30.5,17.61-30.5-17.61v-35.19l30.5-17.61,30.51,17.62v35.18ZM732.32,210.36l-30.5,17.61-30.5-17.61v-35.19l30.5-17.61,30.51,17.62v35.18ZM669.51,210.36l-30.5,17.61-30.5-17.61v-35.19l30.5-17.61,30.51,17.62v35.18ZM606.71,210.36l-30.5,17.61-30.5-17.61v-35.19l30.5-17.61,30.51,17.62v35.18ZM543.91,210.36l-30.5,17.61-30.5-17.61v-35.19l30.5-17.61,30.51,17.62v35.18ZM481.1,210.36l-30.5,17.61-30.5-17.61v-35.19l30.5-17.61,30.51,17.62v35.18ZM418.3,210.36l-30.5,17.61-30.5-17.61v-35.19l30.5-17.61,30.51,17.62v35.18ZM355.5,210.36l-30.5,17.61-30.5-17.61v-35.19l30.5-17.61,30.51,17.62v35.18ZM292.69,210.36l-30.5,17.61-30.5-17.61v-35.19l30.5-17.61,30.51,17.62v35.18ZM229.89,210.36l-30.5,17.61-30.5-17.61v-35.19l30.5-17.61,30.51,17.62v35.18ZM167.08,210.36l-30.5,17.61-30.5-17.61v-35.19l30.5-17.61,30.51,17.62v35.18ZM104.28,210.36l-30.5,17.61-30.5-17.61v-35.19l30.5-17.61,30.51,17.62v35.18ZM74.67,885.22l30.5-17.61,30.5,17.61v35.19l-30.5,17.61-30.51-17.62v-35.18ZM137.47,885.22l30.5-17.61,30.5,17.61v35.19l-30.5,17.61-30.51-17.62v-35.18ZM200.27,885.22l30.5-17.61,30.5,17.61v35.19l-30.5,17.61-30.51-17.62v-35.18ZM263.08,885.22l30.5-17.61,30.5,17.61v35.19l-30.5,17.61-30.51-17.62v-35.18ZM325.88,885.22l30.5-17.61,30.5,17.61v35.19l-30.5,17.61-30.51-17.62v-35.18ZM388.68,885.22l30.5-17.61,30.5,17.61v35.19l-30.5,17.61-30.51-17.62v-35.18ZM451.49,885.22l30.5-17.61,30.5,17.61v35.19l-30.5,17.61-30.51-17.62v-35.18ZM514.29,885.22l30.5-17.61,30.5,17.61v35.19l-30.5,17.61-30.51-17.62v-35.18ZM577.1,885.22l30.5-17.61,30.5,17.61v35.19l-30.5,17.61-30.51-17.62v-35.18ZM639.9,885.22l30.5-17.61,30.5,17.61v35.19l-30.5,17.61-30.51-17.62v-35.18ZM702.7,885.22l30.5-17.61,30.5,17.61v35.19l-30.5,17.61-30.51-17.62v-35.18ZM765.51,885.22l30.5-17.61,30.5,17.61v35.19l-30.5,17.61-30.51-17.62v-35.18ZM828.31,885.22l30.5-17.61,30.5,17.61v35.19l-30.5,17.61-30.51-17.62v-35.18ZM891.11,885.22l30.5-17.61,30.5,17.61v35.19l-30.5,17.61-30.51-17.62v-35.18ZM953.92,885.22l30.5-17.61,30.5,17.61v35.19l-30.5,17.61-30.51-17.62v-35.18ZM1016.72,885.22l30.5-17.61,30.5,17.61v35.19l-30.5,17.61-30.51-17.62v-35.18ZM1079.52,885.22l30.5-17.61,30.5,17.61v35.19l-30.5,17.61-30.51-17.62v-35.18ZM1142.33,885.22l30.5-17.61,30.5,17.61v35.19l-30.5,17.61-30.51-17.62v-35.18ZM1205.13,885.22l30.5-17.61,30.5,17.61v35.19l-30.5,17.61-30.51-17.62v-35.18ZM1267.94,885.22l30.5-17.61,30.5,17.61v35.19l-30.5,17.61-30.51-17.62v-35.18ZM1330.74,885.22l30.5-17.61,30.5,17.61v35.19l-30.5,17.61-30.51-17.62v-35.18ZM1393.54,885.22l30.5-17.61,30.5,17.61v35.19l-30.5,17.61-30.51-17.62v-35.18ZM1456.35,885.22l30.5-17.61,30.5,17.61v35.19l-30.5,17.61-30.51-17.62v-35.18ZM1519.15,885.22l30.5-17.61,30.5,17.61v35.19l-30.5,17.61-30.51-17.62v-35.18ZM1581.96,885.22l30.5-17.61,30.5,17.61v35.19l-30.5,17.61-30.51-17.62v-35.18ZM1644.76,885.22l30.5-17.61,30.5,17.61v35.19l-30.5,17.61-30.51-17.62v-35.18ZM1707.56,885.22l30.5-17.61,30.5,17.61v35.19l-30.5,17.61-30.51-17.62v-35.18ZM1770.37,885.22l30.5-17.61,30.5,17.61v35.19l-30.5,17.61-30.51-17.62v-35.18ZM1833.17,885.22l30.5-17.61,30.5,17.61v35.19l-30.5,17.61-30.51-17.62v-35.18ZM1895.98,885.22l30.5-17.61,30.5,17.61v35.19l-30.5,17.61-30.51-17.62v-35.18ZM42.37,212.45l30.5,17.61v35.19l-30.5,17.61-30.51-17.62v-35.18l30.5-17.61ZM42.37,321.64l30.5,17.61v35.19l-30.5,17.61-30.51-17.62v-35.18l30.5-17.61ZM42.37,430.84l30.5,17.61v35.19l-30.5,17.61-30.51-17.62v-35.18l30.5-17.61ZM42.37,540.03l30.5,17.61v35.19l-30.5,17.61-30.51-17.62v-35.18l30.5-17.61ZM42.37,649.22l30.5,17.61v35.19l-30.5,17.61-30.51-17.62v-35.18l30.5-17.61ZM42.37,758.42l30.5,17.61v35.19l-30.5,17.61-30.51-17.62v-35.18l30.5-17.61ZM42.37,867.61l30.5,17.61v35.19l-30.5,17.61-30.51-17.62v-35.18l30.5-17.61ZM1957.89,883.14l-30.5-17.61v-35.19l30.5-17.61,30.51,17.62v35.18l-30.5,17.61ZM1957.89,773.94l-30.5-17.61v-35.19l30.5-17.61,30.51,17.62v35.18l-30.5,17.61ZM1957.89,664.75l-30.5-17.61v-35.19l30.5-17.61,30.51,17.61v35.18l-30.5,17.61ZM1957.89,555.56l-30.5-17.61v-35.19l30.5-17.61,30.51,17.62v35.18l-30.5,17.61ZM1957.89,446.36l-30.5-17.61v-35.19l30.5-17.61,30.51,17.62v35.18l-30.5,17.61ZM1957.89,337.17l-30.5-17.61v-35.19l30.5-17.61,30.51,17.62v35.18l-30.5,17.61ZM1957.89,227.98l-30.5-17.61v-35.19l30.5-17.61,30.51,17.62v35.18l-30.5,17.61ZM1956.98,156.06l-30.5,17.61-30.51-17.62v-35.18l30.5-17.61,30.5,17.61v35.19ZM1894.18,156.06l-30.5,17.61-30.51-17.62v-35.18l30.5-17.61,30.5,17.61v35.19ZM1831.38,156.06l-30.5,17.61-30.51-17.62v-35.18l30.5-17.61,30.5,17.61v35.19ZM1768.57,156.06l-30.5,17.61-30.51-17.62v-35.18l30.5-17.61,30.5,17.61v35.19ZM1705.77,156.06l-30.5,17.61-30.51-17.62v-35.18l30.5-17.61,30.5,17.61v35.19ZM1642.96,156.06l-30.5,17.61-30.51-17.62v-35.18l30.5-17.61,30.5,17.61v35.19ZM1580.16,156.06l-30.5,17.61-30.51-17.62v-35.18l30.5-17.61,30.5,17.61v35.19ZM1517.36,156.06l-30.5,17.61-30.51-17.62v-35.18l30.5-17.61,30.5,17.61v35.19ZM1454.55,156.06l-30.5,17.61-30.51-17.62v-35.18l30.5-17.61,30.5,17.61v35.19ZM1391.75,156.06l-30.5,17.61-30.51-17.62v-35.18l30.5-17.61,30.5,17.61v35.19ZM1328.95,156.06l-30.5,17.61-30.51-17.62v-35.18l30.5-17.61,30.5,17.61v35.19ZM1266.14,156.06l-30.5,17.61-30.51-17.62v-35.18l30.5-17.61,30.5,17.61v35.19ZM1203.34,156.06l-30.5,17.61-30.51-17.62v-35.18l30.5-17.61,30.5,17.61v35.19ZM1140.53,156.06l-30.5,17.61-30.51-17.62v-35.18l30.5-17.61,30.5,17.61v35.19ZM1077.73,156.06l-30.5,17.61-30.51-17.62v-35.18l30.5-17.61,30.5,17.61v35.19ZM1014.93,156.06l-30.5,17.61-30.51-17.62v-35.18l30.5-17.61,30.5,17.61v35.19ZM952.12,156.06l-30.5,17.61-30.51-17.62v-35.18l30.5-17.61,30.5,17.61v35.19ZM889.32,156.06l-30.5,17.61-30.51-17.62v-35.18l30.5-17.61,30.5,17.61v35.19ZM826.52,156.06l-30.5,17.61-30.51-17.62v-35.18l30.5-17.61,30.5,17.61v35.19ZM763.71,156.06l-30.5,17.61-30.51-17.62v-35.18l30.5-17.61,30.5,17.61v35.19ZM700.91,156.06l-30.5,17.61-30.51-17.62v-35.18l30.5-17.61,30.5,17.61v35.19ZM638.1,156.06l-30.5,17.61-30.51-17.62v-35.18l30.5-17.61,30.5,17.61v35.19ZM575.3,156.06l-30.5,17.61-30.51-17.62v-35.18l30.5-17.61,30.5,17.61v35.19ZM512.5,156.06l-30.5,17.61-30.51-17.62v-35.18l30.5-17.61,30.5,17.61v35.19ZM449.69,156.06l-30.5,17.61-30.51-17.62v-35.18l30.5-17.61,30.5,17.61v35.19ZM386.89,156.06l-30.5,17.61-30.51-17.62v-35.18l30.5-17.61,30.5,17.61v35.19ZM324.09,156.06l-30.5,17.61-30.51-17.62v-35.18l30.5-17.61,30.5,17.61v35.19ZM261.28,156.06l-30.5,17.61-30.51-17.62v-35.18l30.5-17.61,30.5,17.61v35.19ZM198.48,156.06l-30.5,17.61-30.51-17.62v-35.18l30.5-17.61,30.5,17.61v35.19ZM135.67,156.06l-30.5,17.61-30.51-17.62v-35.18l30.5-17.61,30.5,17.61v35.19ZM72.87,156.06l-30.5,17.61-30.51-17.62v-35.18l30.5-17.61,30.5,17.61v35.19ZM43.27,939.53l30.5-17.61,30.51,17.62v35.18l-30.5,17.61-30.5-17.61v-35.19ZM106.08,939.53l30.5-17.61,30.51,17.62v35.18l-30.5,17.61-30.5-17.61v-35.19ZM168.88,939.53l30.5-17.61,30.51,17.62v35.18l-30.5,17.61-30.5-17.61v-35.19ZM231.68,939.53l30.5-17.61,30.51,17.62v35.18l-30.5,17.61-30.5-17.61v-35.19ZM294.49,939.53l30.5-17.61,30.51,17.62v35.18l-30.5,17.61-30.5-17.61v-35.19ZM357.29,939.53l30.5-17.61,30.51,17.62v35.18l-30.5,17.61-30.5-17.61v-35.19ZM420.09,939.53l30.5-17.61,30.51,17.62v35.18l-30.5,17.61-30.5-17.61v-35.19ZM482.9,939.53l30.5-17.61,30.51,17.62v35.18l-30.5,17.61-30.5-17.61v-35.19ZM545.7,939.53l30.5-17.61,30.51,17.62v35.18l-30.5,17.61-30.5-17.61v-35.19ZM608.51,939.53l30.5-17.61,30.51,17.62v35.18l-30.5,17.61-30.5-17.61v-35.19ZM671.31,939.53l30.5-17.61,30.51,17.62v35.18l-30.5,17.61-30.5-17.61v-35.19ZM734.11,939.53l30.5-17.61,30.51,17.62v35.18l-30.5,17.61-30.5-17.61v-35.19ZM796.92,939.53l30.5-17.61,30.51,17.62v35.18l-30.5,17.61-30.5-17.61v-35.19ZM859.72,939.53l30.5-17.61,30.51,17.62v35.18l-30.5,17.61-30.5-17.61v-35.19ZM922.52,939.53l30.5-17.61,30.51,17.62v35.18l-30.5,17.61-30.5-17.61v-35.19ZM985.33,939.53l30.5-17.61,30.51,17.62v35.18l-30.5,17.61-30.5-17.61v-35.19ZM1048.13,939.53l30.5-17.61,30.51,17.62v35.18l-30.5,17.61-30.5-17.61v-35.19ZM1110.94,939.53l30.5-17.61,30.51,17.62v35.18l-30.5,17.61-30.5-17.61v-35.19ZM1173.74,939.53l30.5-17.61,30.51,17.62v35.18l-30.5,17.61-30.5-17.61v-35.19ZM1236.54,939.53l30.5-17.61,30.51,17.62v35.18l-30.5,17.61-30.5-17.61v-35.19ZM1299.35,939.53l30.5-17.61,30.51,17.62v35.18l-30.5,17.61-30.5-17.61v-35.19ZM1362.15,939.53l30.5-17.61,30.51,17.62v35.18l-30.5,17.61-30.5-17.61v-35.19ZM1424.95,939.53l30.5-17.61,30.51,17.62v35.18l-30.5,17.61-30.5-17.61v-35.19ZM1487.76,939.53l30.5-17.61,30.51,17.62v35.18l-30.5,17.61-30.5-17.61v-35.19ZM1550.56,939.53l30.5-17.61,30.51,17.62v35.18l-30.5,17.61-30.5-17.61v-35.19ZM1613.37,939.53l30.5-17.61,30.51,17.62v35.18l-30.5,17.61-30.5-17.61v-35.19ZM1676.17,939.53l30.5-17.61,30.51,17.62v35.18l-30.5,17.61-30.5-17.61v-35.19ZM1738.97,939.53l30.5-17.61,30.51,17.62v35.18l-30.5,17.61-30.5-17.61v-35.19ZM1801.78,939.53l30.5-17.61,30.51,17.62v35.18l-30.5,17.61-30.5-17.61v-35.19ZM1864.58,939.53l30.5-17.61,30.51,17.62v35.18l-30.5,17.61-30.5-17.61v-35.19ZM1927.38,939.53l30.5-17.61,30.51,17.62v35.18l-30.5,17.61-30.5-17.61v-35.19ZM1988.39,101.17l-30.5,17.61-30.5-17.61v-35.19l30.5-17.61,30.51,17.62v35.18ZM1925.59,101.17l-30.5,17.61-30.5-17.61v-35.19l30.5-17.61,30.51,17.62v35.18ZM1862.79,101.17l-30.5,17.61-30.5-17.61v-35.19l30.5-17.61,30.51,17.62v35.18ZM1799.98,101.17l-30.5,17.61-30.5-17.61v-35.19l30.5-17.61,30.51,17.62v35.18ZM1737.18,101.17l-30.5,17.61-30.5-17.61v-35.19l30.5-17.61,30.51,17.62v35.18ZM1674.37,101.17l-30.5,17.61-30.5-17.61v-35.19l30.5-17.61,30.51,17.62v35.18ZM1611.57,101.17l-30.5,17.61-30.5-17.61v-35.19l30.5-17.61,30.51,17.62v35.18ZM1548.77,101.17l-30.5,17.61-30.5-17.61v-35.19l30.5-17.61,30.51,17.62v35.18ZM1485.96,101.17l-30.5,17.61-30.5-17.61v-35.19l30.5-17.61,30.51,17.62v35.18ZM1423.16,101.17l-30.5,17.61-30.5-17.61v-35.19l30.5-17.61,30.51,17.62v35.18ZM1360.35,101.17l-30.5,17.61-30.5-17.61v-35.19l30.5-17.61,30.51,17.62v35.18ZM1297.55,101.17l-30.5,17.61-30.5-17.61v-35.19l30.5-17.61,30.51,17.62v35.18ZM1234.75,101.17l-30.5,17.61-30.5-17.61v-35.19l30.5-17.61,30.51,17.62v35.18ZM1171.94,101.17l-30.5,17.61-30.5-17.61v-35.19l30.5-17.61,30.51,17.62v35.18ZM1109.14,101.17l-30.5,17.61-30.5-17.61v-35.19l30.5-17.61,30.51,17.62v35.18ZM1046.34,101.17l-30.5,17.61-30.5-17.61v-35.19l30.5-17.61,30.51,17.62v35.18ZM983.53,101.17l-30.5,17.61-30.5-17.61v-35.19l30.5-17.61,30.51,17.62v35.18ZM920.73,101.17l-30.5,17.61-30.5-17.61v-35.19l30.5-17.61,30.51,17.62v35.18ZM857.92,101.17l-30.5,17.61-30.5-17.61v-35.19l30.5-17.61,30.51,17.62v35.18ZM795.12,101.17l-30.5,17.61-30.5-17.61v-35.19l30.5-17.61,30.51,17.62v35.18ZM732.32,101.17l-30.5,17.61-30.5-17.61v-35.19l30.5-17.61,30.51,17.62v35.18ZM669.51,101.17l-30.5,17.61-30.5-17.61v-35.19l30.5-17.61,30.51,17.62v35.18ZM606.71,101.17l-30.5,17.61-30.5-17.61v-35.19l30.5-17.61,30.51,17.62v35.18ZM543.91,101.17l-30.5,17.61-30.5-17.61v-35.19l30.5-17.61,30.51,17.62v35.18ZM481.1,101.17l-30.5,17.61-30.5-17.61v-35.19l30.5-17.61,30.51,17.62v35.18ZM418.3,101.17l-30.5,17.61-30.5-17.61v-35.19l30.5-17.61,30.51,17.62v35.18ZM355.5,101.17l-30.5,17.61-30.5-17.61v-35.19l30.5-17.61,30.51,17.62v35.18ZM292.69,101.17l-30.5,17.61-30.5-17.61v-35.19l30.5-17.61,30.51,17.62v35.18ZM229.89,101.17l-30.5,17.61-30.5-17.61v-35.19l30.5-17.61,30.51,17.62v35.18ZM167.08,101.17l-30.5,17.61-30.5-17.61v-35.19l30.5-17.61,30.51,17.62v35.18ZM104.28,101.17l-30.5,17.61-30.5-17.61v-35.19l30.5-17.61,30.51,17.62v35.18ZM41.48,101.17l-30.5,17.61-30.5-17.61v-35.19l30.5-17.61,30.51,17.62v35.18ZM-20.44,103.26l30.5,17.61v35.19l-30.5,17.61-30.51-17.62v-35.18l30.5-17.61ZM-20.44,212.45l30.5,17.61v35.19l-30.5,17.61-30.51-17.62v-35.18l30.5-17.61ZM-20.44,321.64l30.5,17.61v35.19l-30.5,17.61-30.51-17.62v-35.18l30.5-17.61ZM-20.44,430.84l30.5,17.61v35.19l-30.5,17.61-30.51-17.62v-35.18l30.5-17.61ZM-20.44,540.03l30.5,17.61v35.19l-30.5,17.61-30.51-17.62v-35.18l30.5-17.61ZM-20.44,649.22l30.5,17.61v35.19l-30.5,17.61-30.51-17.62v-35.18l30.5-17.61ZM-20.44,758.42l30.5,17.61v35.19l-30.5,17.61-30.51-17.62v-35.18l30.5-17.61ZM-20.44,867.61l30.5,17.61v35.19l-30.5,17.61-30.51-17.62v-35.18l30.5-17.61ZM-20.44,976.8l30.5,17.61v35.19l-30.5,17.61-30.51-17.62v-35.18l30.5-17.61ZM11.86,994.41l30.5-17.61,30.5,17.61v35.19l-30.5,17.61-30.51-17.62v-35.18ZM74.67,994.41l30.5-17.61,30.5,17.61v35.19l-30.5,17.61-30.51-17.62v-35.18ZM137.47,994.41l30.5-17.61,30.5,17.61v35.19l-30.5,17.61-30.51-17.62v-35.18ZM200.27,994.41l30.5-17.61,30.5,17.61v35.19l-30.5,17.61-30.51-17.62v-35.18ZM263.08,994.41l30.5-17.61,30.5,17.61v35.19l-30.5,17.61-30.51-17.62v-35.18ZM325.88,994.41l30.5-17.61,30.5,17.61v35.19l-30.5,17.61-30.51-17.62v-35.18ZM388.68,994.41l30.5-17.61,30.5,17.61v35.19l-30.5,17.61-30.51-17.62v-35.18ZM451.49,994.41l30.5-17.61,30.5,17.61v35.19l-30.5,17.61-30.51-17.62v-35.18ZM514.29,994.41l30.5-17.61,30.5,17.61v35.19l-30.5,17.61-30.51-17.62v-35.18ZM577.1,994.41l30.5-17.61,30.5,17.61v35.19l-30.5,17.61-30.51-17.62v-35.18ZM639.9,994.41l30.5-17.61,30.5,17.61v35.19l-30.5,17.61-30.51-17.62v-35.18ZM702.7,994.41l30.5-17.61,30.5,17.61v35.19l-30.5,17.61-30.51-17.62v-35.18ZM765.51,994.41l30.5-17.61,30.5,17.61v35.19l-30.5,17.61-30.51-17.62v-35.18ZM828.31,994.41l30.5-17.61,30.5,17.61v35.19l-30.5,17.61-30.51-17.62v-35.18ZM891.11,994.41l30.5-17.61,30.5,17.61v35.19l-30.5,17.61-30.51-17.62v-35.18ZM953.92,994.41l30.5-17.61,30.5,17.61v35.19l-30.5,17.61-30.51-17.62v-35.18ZM1016.72,994.41l30.5-17.61,30.5,17.61v35.19l-30.5,17.61-30.51-17.62v-35.18ZM1079.52,994.41l30.5-17.61,30.5,17.61v35.19l-30.5,17.61-30.51-17.62v-35.18ZM1142.33,994.41l30.5-17.61,30.5,17.61v35.19l-30.5,17.61-30.51-17.62v-35.18ZM1205.13,994.41l30.5-17.61,30.5,17.61v35.19l-30.5,17.61-30.51-17.62v-35.18ZM1267.94,994.41l30.5-17.61,30.5,17.61v35.19l-30.5,17.61-30.51-17.62v-35.18ZM1330.74,994.41l30.5-17.61,30.5,17.61v35.19l-30.5,17.61-30.51-17.62v-35.18ZM1393.54,994.41l30.5-17.61,30.5,17.61v35.19l-30.5,17.61-30.51-17.62v-35.18ZM1456.35,994.41l30.5-17.61,30.5,17.61v35.19l-30.5,17.61-30.51-17.62v-35.18ZM1519.15,994.41l30.5-17.61,30.5,17.61v35.19l-30.5,17.61-30.51-17.62v-35.18ZM1581.96,994.41l30.5-17.61,30.5,17.61v35.19l-30.5,17.61-30.51-17.62v-35.18ZM1644.76,994.41l30.5-17.61,30.5,17.61v35.19l-30.5,17.61-30.51-17.62v-35.18ZM1707.56,994.41l30.5-17.61,30.5,17.61v35.19l-30.5,17.61-30.51-17.62v-35.18ZM1770.37,994.41l30.5-17.61,30.5,17.61v35.19l-30.5,17.61-30.51-17.62v-35.18ZM1833.17,994.41l30.5-17.61,30.5,17.61v35.19l-30.5,17.61-30.51-17.62v-35.18ZM1895.98,994.41l30.5-17.61,30.5,17.61v35.19l-30.5,17.61-30.51-17.62v-35.18ZM1958.78,994.41l30.5-17.61,30.5,17.61v35.19l-30.5,17.61-30.51-17.62v-35.18ZM2020.69,992.33l-30.5-17.61v-35.19l30.5-17.61,30.51,17.62v35.18l-30.5,17.61ZM2020.69,883.14l-30.5-17.61v-35.19l30.5-17.61,30.51,17.62v35.18l-30.5,17.61ZM2020.69,773.94l-30.5-17.61v-35.19l30.5-17.61,30.51,17.62v35.18l-30.5,17.61ZM2020.69,664.75l-30.5-17.61v-35.19l30.5-17.61,30.51,17.61v35.18l-30.5,17.61ZM2020.69,555.56l-30.5-17.61v-35.19l30.5-17.61,30.51,17.62v35.18l-30.5,17.61ZM2020.69,446.36l-30.5-17.61v-35.19l30.5-17.61,30.51,17.62v35.18l-30.5,17.61ZM2020.69,337.17l-30.5-17.61v-35.19l30.5-17.61,30.51,17.62v35.18l-30.5,17.61ZM2020.69,227.98l-30.5-17.61v-35.19l30.5-17.61,30.51,17.62v35.18l-30.5,17.61ZM2020.69,118.78l-30.5-17.61v-35.19l30.5-17.61,30.51,17.62v35.18l-30.5,17.61ZM2019.79,46.86l-30.5,17.61-30.51-17.62V11.67l30.5-17.61,30.5,17.61v35.19ZM1956.98,46.86l-30.5,17.61-30.51-17.62V11.67l30.5-17.61,30.5,17.61v35.19ZM1894.18,46.86l-30.5,17.61-30.51-17.62V11.67l30.5-17.61,30.5,17.61v35.19ZM1831.38,46.86l-30.5,17.61-30.51-17.62V11.67l30.5-17.61,30.5,17.61v35.19ZM1768.57,46.86l-30.5,17.61-30.51-17.62V11.67l30.5-17.61,30.5,17.61v35.19ZM1705.77,46.86l-30.5,17.61-30.51-17.62V11.67l30.5-17.61,30.5,17.61v35.19ZM1642.96,46.86l-30.5,17.61-30.51-17.62V11.67l30.5-17.61,30.5,17.61v35.19ZM1580.16,46.86l-30.5,17.61-30.51-17.62V11.67l30.5-17.61,30.5,17.61v35.19ZM1517.36,46.86l-30.5,17.61-30.51-17.62V11.67l30.5-17.61,30.5,17.61v35.19ZM1454.55,46.86l-30.5,17.61-30.51-17.62V11.67l30.5-17.61,30.5,17.61v35.19ZM1391.75,46.86l-30.5,17.61-30.51-17.62V11.67l30.5-17.61,30.5,17.61v35.19ZM1328.95,46.86l-30.5,17.61-30.51-17.62V11.67l30.5-17.61,30.5,17.61v35.19ZM1266.14,46.86l-30.5,17.61-30.51-17.62V11.67l30.5-17.61,30.5,17.61v35.19ZM1203.34,46.86l-30.5,17.61-30.51-17.62V11.67l30.5-17.61,30.5,17.61v35.19ZM1140.53,46.86l-30.5,17.61-30.51-17.62V11.67l30.5-17.61,30.5,17.61v35.19ZM1077.73,46.86l-30.5,17.61-30.51-17.62V11.67l30.5-17.61,30.5,17.61v35.19ZM1014.93,46.86l-30.5,17.61-30.51-17.62V11.67l30.5-17.61,30.5,17.61v35.19ZM952.12,46.86l-30.5,17.61-30.51-17.62V11.67l30.5-17.61,30.5,17.61v35.19ZM889.32,46.86l-30.5,17.61-30.51-17.62V11.67l30.5-17.61,30.5,17.61v35.19ZM826.52,46.86l-30.5,17.61-30.51-17.62V11.67l30.5-17.61,30.5,17.61v35.19ZM763.71,46.86l-30.5,17.61-30.51-17.62V11.67l30.5-17.61,30.5,17.61v35.19ZM700.91,46.86l-30.5,17.61-30.51-17.62V11.67l30.5-17.61,30.5,17.61v35.19ZM638.1,46.86l-30.5,17.61-30.51-17.62V11.67l30.5-17.61,30.5,17.61v35.19ZM575.3,46.86l-30.5,17.61-30.51-17.62V11.67l30.5-17.61,30.5,17.61v35.19ZM512.5,46.86l-30.5,17.61-30.51-17.62V11.67l30.5-17.61,30.5,17.61v35.19ZM449.69,46.86l-30.5,17.61-30.51-17.62V11.67l30.5-17.61,30.5,17.61v35.19ZM386.89,46.86l-30.5,17.61-30.51-17.62V11.67l30.5-17.61,30.5,17.61v35.19ZM324.09,46.86l-30.5,17.61-30.51-17.62V11.67l30.5-17.61,30.5,17.61v35.19ZM261.28,46.86l-30.5,17.61-30.51-17.62V11.67l30.5-17.61,30.5,17.61v35.19ZM198.48,46.86l-30.5,17.61-30.51-17.62V11.67l30.5-17.61,30.5,17.61v35.19ZM135.67,46.86l-30.5,17.61-30.51-17.62V11.67l30.5-17.61,30.5,17.61v35.19ZM72.87,46.86l-30.5,17.61-30.51-17.62V11.67L42.37-5.94l30.5,17.61v35.19ZM10.07,46.86l-30.5,17.61-30.51-17.62V11.67L-20.44-5.94,10.07,11.67v35.19ZM-19.53,1048.72l30.5-17.61,30.51,17.62v35.18l-30.5,17.61-30.5-17.61v-35.19ZM43.27,1048.72l30.5-17.61,30.51,17.62v35.18l-30.5,17.61-30.5-17.61v-35.19ZM106.08,1048.72l30.5-17.61,30.51,17.62v35.18l-30.5,17.61-30.5-17.61v-35.19ZM168.88,1048.72l30.5-17.61,30.51,17.62v35.18l-30.5,17.61-30.5-17.61v-35.19ZM231.68,1048.72l30.5-17.61,30.51,17.62v35.18l-30.5,17.61-30.5-17.61v-35.19ZM294.49,1048.72l30.5-17.61,30.51,17.62v35.18l-30.5,17.61-30.5-17.61v-35.19ZM357.29,1048.72l30.5-17.61,30.51,17.62v35.18l-30.5,17.61-30.5-17.61v-35.19ZM420.09,1048.72l30.5-17.61,30.51,17.62v35.18l-30.5,17.61-30.5-17.61v-35.19ZM482.9,1048.72l30.5-17.61,30.51,17.62v35.18l-30.5,17.61-30.5-17.61v-35.19ZM545.7,1048.72l30.5-17.61,30.51,17.62v35.18l-30.5,17.61-30.5-17.61v-35.19ZM608.51,1048.72l30.5-17.61,30.51,17.62v35.18l-30.5,17.61-30.5-17.61v-35.19ZM671.31,1048.72l30.5-17.61,30.51,17.62v35.18l-30.5,17.61-30.5-17.61v-35.19ZM734.11,1048.72l30.5-17.61,30.51,17.62v35.18l-30.5,17.61-30.5-17.61v-35.19ZM796.92,1048.72l30.5-17.61,30.51,17.62v35.18l-30.5,17.61-30.5-17.61v-35.19ZM859.72,1048.72l30.5-17.61,30.51,17.62v35.18l-30.5,17.61-30.5-17.61v-35.19ZM922.52,1048.72l30.5-17.61,30.51,17.62v35.18l-30.5,17.61-30.5-17.61v-35.19ZM985.33,1048.72l30.5-17.61,30.51,17.62v35.18l-30.5,17.61-30.5-17.61v-35.19ZM1048.13,1048.72l30.5-17.61,30.51,17.62v35.18l-30.5,17.61-30.5-17.61v-35.19ZM1110.94,1048.72l30.5-17.61,30.51,17.62v35.18l-30.5,17.61-30.5-17.61v-35.19ZM1173.74,1048.72l30.5-17.61,30.51,17.62v35.18l-30.5,17.61-30.5-17.61v-35.19ZM1236.54,1048.72l30.5-17.61,30.51,17.62v35.18l-30.5,17.61-30.5-17.61v-35.19ZM1299.35,1048.72l30.5-17.61,30.51,17.62v35.18l-30.5,17.61-30.5-17.61v-35.19ZM1362.15,1048.72l30.5-17.61,30.51,17.62v35.18l-30.5,17.61-30.5-17.61v-35.19ZM1424.95,1048.72l30.5-17.61,30.51,17.62v35.18l-30.5,17.61-30.5-17.61v-35.19ZM1487.76,1048.72l30.5-17.61,30.51,17.62v35.18l-30.5,17.61-30.5-17.61v-35.19ZM1550.56,1048.72l30.5-17.61,30.51,17.62v35.18l-30.5,17.61-30.5-17.61v-35.19ZM1613.37,1048.72l30.5-17.61,30.51,17.62v35.18l-30.5,17.61-30.5-17.61v-35.19ZM1676.17,1048.72l30.5-17.61,30.51,17.62v35.18l-30.5,17.61-30.5-17.61v-35.19ZM1738.97,1048.72l30.5-17.61,30.51,17.62v35.18l-30.5,17.61-30.5-17.61v-35.19ZM1801.78,1048.72l30.5-17.61,30.51,17.62v35.18l-30.5,17.61-30.5-17.61v-35.19ZM1864.58,1048.72l30.5-17.61,30.51,17.62v35.18l-30.5,17.61-30.5-17.61v-35.19ZM1927.38,1048.72l30.5-17.61,30.51,17.62v35.18l-30.5,17.61-30.5-17.61v-35.19ZM1990.19,1048.72l30.5-17.61,30.51,17.62v35.18l-30.5,17.61-30.5-17.61v-35.19ZM-113.75,11.67l30.5-17.61,30.5,17.61v35.19l-30.5,17.61-30.51-17.62V11.67ZM-113.75,120.87l30.5-17.61,30.5,17.61v35.19l-30.5,17.61-30.51-17.62v-35.18ZM-113.75,230.06l30.5-17.61,30.5,17.61v35.19l-30.5,17.61-30.51-17.62v-35.18ZM-113.75,339.25l30.5-17.61,30.5,17.61v35.19l-30.5,17.61-30.51-17.62v-35.18ZM-113.75,448.45l30.5-17.61,30.5,17.61v35.19l-30.5,17.61-30.51-17.62v-35.18ZM-113.75,557.64l30.5-17.61,30.5,17.61v35.19l-30.5,17.61-30.51-17.62v-35.18ZM-113.75,666.83l30.5-17.61,30.5,17.61v35.19l-30.5,17.61-30.51-17.62v-35.18ZM-113.75,776.03l30.5-17.61,30.5,17.61v35.19l-30.5,17.61-30.51-17.62v-35.18ZM-113.75,885.22l30.5-17.61,30.5,17.61v35.19l-30.5,17.61-30.51-17.62v-35.18ZM-113.75,994.41l30.5-17.61,30.5,17.61v35.19l-30.5,17.61-30.51-17.62v-35.18ZM2114,1083.91l-30.5,17.61-30.5-17.61v-35.19l30.5-17.61,30.51,17.62v35.18ZM2114,974.72l-30.5,17.61-30.5-17.61v-35.19l30.5-17.61,30.51,17.62v35.18ZM2114,865.52l-30.5,17.61-30.5-17.61v-35.19l30.5-17.61,30.51,17.62v35.18ZM2114,756.33l-30.5,17.61-30.5-17.61v-35.19l30.5-17.61,30.51,17.62v35.18ZM2114,647.14l-30.5,17.61-30.5-17.61v-35.19l30.5-17.61,30.51,17.61v35.18ZM2114,537.95l-30.5,17.61-30.5-17.61v-35.19l30.5-17.61,30.51,17.62v35.18ZM2114,428.75l-30.5,17.61-30.5-17.61v-35.19l30.5-17.61,30.51,17.62v35.18ZM2114,319.56l-30.5,17.61-30.5-17.61v-35.19l30.5-17.61,30.51,17.62v35.18ZM2114,210.36l-30.5,17.61-30.5-17.61v-35.19l30.5-17.61,30.51,17.62v35.18ZM2114,101.17l-30.5,17.61-30.5-17.61v-35.19l30.5-17.61,30.51,17.62v35.18ZM2114-43.2V-8.02l-30.5,17.61-30.5-17.61v-35.19l30.5-17.61,30.51,17.62ZM2051.2-43.2V-8.02l-30.5,17.61-30.5-17.61v-35.19l30.5-17.61,30.51,17.62ZM1988.39-43.2V-8.02l-30.5,17.61-30.5-17.61v-35.19l30.5-17.61,30.51,17.62ZM1925.59-43.2V-8.02l-30.5,17.61-30.5-17.61v-35.19l30.5-17.61,30.51,17.62ZM1862.79-43.2V-8.02l-30.5,17.61-30.5-17.61v-35.19l30.5-17.61,30.51,17.62ZM1799.98-43.2V-8.02l-30.5,17.61-30.5-17.61v-35.19l30.5-17.61,30.51,17.62ZM1737.18-43.2V-8.02l-30.5,17.61-30.5-17.61v-35.19l30.5-17.61,30.51,17.62ZM1674.37-43.2V-8.02l-30.5,17.61-30.5-17.61v-35.19l30.5-17.61,30.51,17.62ZM1611.57-43.2V-8.02l-30.5,17.61-30.5-17.61v-35.19l30.5-17.61,30.51,17.62ZM1548.77-43.2V-8.02l-30.5,17.61-30.5-17.61v-35.19l30.5-17.61,30.51,17.62ZM1485.96-43.2V-8.02l-30.5,17.61-30.5-17.61v-35.19l30.5-17.61,30.51,17.62ZM1423.16-43.2V-8.02l-30.5,17.61-30.5-17.61v-35.19l30.5-17.61,30.51,17.62ZM1360.35-43.2V-8.02l-30.5,17.61-30.5-17.61v-35.19l30.5-17.61,30.51,17.62ZM1297.55-43.2V-8.02l-30.5,17.61-30.5-17.61v-35.19l30.5-17.61,30.51,17.62ZM1234.75-43.2V-8.02l-30.5,17.61-30.5-17.61v-35.19l30.5-17.61,30.51,17.62ZM1171.94-43.2V-8.02l-30.5,17.61-30.5-17.61v-35.19l30.5-17.61,30.51,17.62ZM1109.14-43.2V-8.02l-30.5,17.61-30.5-17.61v-35.19l30.5-17.61,30.51,17.62ZM1046.34-43.2V-8.02l-30.5,17.61-30.5-17.61v-35.19l30.5-17.61,30.51,17.62ZM983.53-43.2V-8.02l-30.5,17.61-30.5-17.61v-35.19l30.5-17.61,30.51,17.62ZM920.73-43.2V-8.02l-30.5,17.61-30.5-17.61v-35.19l30.5-17.61,30.51,17.62ZM857.92-43.2V-8.02l-30.5,17.61-30.5-17.61v-35.19l30.5-17.61,30.51,17.62ZM795.12-43.2V-8.02l-30.5,17.61-30.5-17.61v-35.19l30.5-17.61,30.51,17.62ZM732.32-43.2V-8.02l-30.5,17.61-30.5-17.61v-35.19l30.5-17.61,30.51,17.62ZM669.51-43.2V-8.02l-30.5,17.61-30.5-17.61v-35.19l30.5-17.61,30.51,17.62ZM606.71-43.2V-8.02l-30.5,17.61-30.5-17.61v-35.19l30.5-17.61,30.51,17.62ZM543.91-43.2V-8.02l-30.5,17.61-30.5-17.61v-35.19l30.5-17.61,30.51,17.62ZM481.1-43.2V-8.02l-30.5,17.61-30.5-17.61v-35.19l30.5-17.61,30.51,17.62ZM418.3-43.2V-8.02l-30.5,17.61-30.5-17.61v-35.19l30.5-17.61,30.51,17.62ZM355.5-43.2V-8.02l-30.5,17.61-30.5-17.61v-35.19l30.5-17.61,30.51,17.62ZM292.69-43.2V-8.02l-30.5,17.61-30.5-17.61v-35.19l30.5-17.61,30.51,17.62ZM229.89-43.2V-8.02l-30.5,17.61-30.5-17.61v-35.19l30.5-17.61,30.51,17.62ZM167.08-43.2V-8.02l-30.5,17.61-30.5-17.61v-35.19l30.5-17.61,30.51,17.62ZM104.28-43.2V-8.02l-30.5,17.61-30.5-17.61v-35.19l30.5-17.61,30.51,17.62ZM41.48-43.2V-8.02L10.97,9.59-19.53-8.02v-35.19l30.5-17.61,30.51,17.62ZM-21.33-43.2V-8.02l-30.5,17.61-30.5-17.61v-35.19l30.5-17.61,30.51,17.62ZM-113.75,1138.79v-35.18l30.5-17.61,30.5,17.61v35.19l-30.5,17.61-30.51-17.61ZM-50.94,1138.79v-35.18l30.5-17.61,30.5,17.61v35.19l-30.5,17.61-30.51-17.61ZM11.86,1138.79v-35.18l30.5-17.61,30.5,17.61v35.19l-30.5,17.61-30.51-17.61ZM74.67,1138.79v-35.18l30.5-17.61,30.5,17.61v35.19l-30.5,17.61-30.51-17.61ZM137.47,1138.79v-35.18l30.5-17.61,30.5,17.61v35.19l-30.5,17.61-30.51-17.61ZM200.27,1138.79v-35.18l30.5-17.61,30.5,17.61v35.19l-30.5,17.61-30.51-17.61ZM263.08,1138.79v-35.18l30.5-17.61,30.5,17.61v35.19l-30.5,17.61-30.51-17.61ZM325.88,1138.79v-35.18l30.5-17.61,30.5,17.61v35.19l-30.5,17.61-30.51-17.61ZM388.68,1138.79v-35.18l30.5-17.61,30.5,17.61v35.19l-30.5,17.61-30.51-17.61ZM451.49,1138.79v-35.18l30.5-17.61,30.5,17.61v35.19l-30.5,17.61-30.51-17.61ZM514.29,1138.79v-35.18l30.5-17.61,30.5,17.61v35.19l-30.5,17.61-30.51-17.61ZM577.1,1138.79v-35.18l30.5-17.61,30.5,17.61v35.19l-30.5,17.61-30.51-17.62ZM639.9,1138.79v-35.18l30.5-17.61,30.5,17.61v35.19l-30.5,17.61-30.51-17.61ZM702.7,1138.79v-35.18l30.5-17.61,30.5,17.61v35.19l-30.5,17.61-30.51-17.61ZM765.51,1138.79v-35.18l30.5-17.61,30.5,17.61v35.19l-30.5,17.61-30.51-17.61ZM828.31,1138.79v-35.18l30.5-17.61,30.5,17.61v35.19l-30.5,17.61-30.51-17.61ZM891.11,1138.79v-35.18l30.5-17.61,30.5,17.61v35.19l-30.5,17.61-30.51-17.62ZM953.92,1138.79v-35.18l30.5-17.61,30.5,17.61v35.19l-30.5,17.61-30.51-17.61ZM1016.72,1138.79v-35.18l30.5-17.61,30.5,17.61v35.19l-30.5,17.61-30.51-17.62ZM1079.52,1138.79v-35.18l30.5-17.61,30.5,17.61v35.19l-30.5,17.61-30.51-17.62ZM1142.33,1138.79v-35.18l30.5-17.61,30.5,17.61v35.19l-30.5,17.61-30.51-17.61ZM1205.13,1138.79v-35.18l30.5-17.61,30.5,17.61v35.19l-30.5,17.61-30.51-17.61ZM1267.94,1138.79v-35.18l30.5-17.61,30.5,17.61v35.19l-30.5,17.61-30.51-17.61ZM1330.74,1138.79v-35.18l30.5-17.61,30.5,17.61v35.19l-30.5,17.61-30.51-17.62ZM1393.54,1138.79v-35.18l30.5-17.61,30.5,17.61v35.19l-30.5,17.61-30.51-17.62ZM1456.35,1138.79v-35.18l30.5-17.61,30.5,17.61v35.19l-30.5,17.61-30.51-17.61ZM1519.15,1138.79v-35.18l30.5-17.61,30.5,17.61v35.19l-30.5,17.61-30.51-17.61ZM1581.96,1138.79v-35.18l30.5-17.61,30.5,17.61v35.19l-30.5,17.61-30.51-17.61ZM1644.76,1138.79v-35.18l30.5-17.61,30.5,17.61v35.19l-30.5,17.61-30.51-17.62ZM1707.56,1138.79v-35.18l30.5-17.61,30.5,17.61v35.19l-30.5,17.61-30.51-17.62ZM1770.37,1138.79v-35.18l30.5-17.61,30.5,17.61v35.19l-30.5,17.61-30.51-17.61ZM1833.17,1138.79v-35.18l30.5-17.61,30.5,17.61v35.19l-30.5,17.61-30.51-17.61ZM1895.98,1138.79v-35.18l30.5-17.61,30.5,17.61v35.19l-30.5,17.61-30.51-17.61ZM1958.78,1138.79v-35.18l30.5-17.61,30.5,17.61v35.19l-30.5,17.61-30.51-17.62ZM2021.58,1138.79v-35.18l30.5-17.61,30.5,17.61v35.19l-30.5,17.61-30.51-17.62ZM-145.14-43.21l30.5-17.61,30.51,17.62V-8.02l-30.5,17.61-30.5-17.61v-35.19ZM-145.14,65.98l30.5-17.61,30.51,17.62v35.18l-30.5,17.61-30.5-17.61v-35.19ZM-145.14,175.17l30.5-17.61,30.51,17.62v35.18l-30.5,17.61-30.5-17.61v-35.19ZM-145.14,284.37l30.5-17.61,30.51,17.62v35.18l-30.5,17.61-30.5-17.61v-35.19ZM-145.14,393.56l30.5-17.61,30.51,17.62v35.18l-30.5,17.61-30.5-17.61v-35.19ZM-145.14,502.76l30.5-17.61,30.51,17.62v35.18l-30.5,17.61-30.5-17.61v-35.19ZM-145.14,611.95l30.5-17.61,30.51,17.61v35.18l-30.5,17.61-30.5-17.61v-35.19ZM-145.14,721.14l30.5-17.61,30.51,17.62v35.18l-30.5,17.61-30.5-17.61v-35.19ZM-145.14,830.34l30.5-17.61,30.51,17.62v35.18l-30.5,17.61-30.5-17.61v-35.19ZM-145.14,939.53l30.5-17.61,30.51,17.62v35.18l-30.5,17.61-30.5-17.61v-35.19ZM-145.14,1048.72l30.5-17.61,30.51,17.62v35.18l-30.5,17.61-30.5-17.61v-35.19ZM2145.4,1138.8l-30.5,17.61-30.51-17.61v-35.18l30.5-17.61,30.5,17.61v35.19ZM2145.4,1029.61l-30.5,17.61-30.51-17.62v-35.18l30.5-17.61,30.5,17.61v35.19ZM2145.4,920.41l-30.5,17.61-30.51-17.62v-35.18l30.5-17.61,30.5,17.61v35.19ZM2145.4,811.22l-30.5,17.61-30.51-17.62v-35.18l30.5-17.61,30.5,17.61v35.19ZM2145.4,702.02l-30.5,17.61-30.51-17.62v-35.18l30.5-17.61,30.5,17.61v35.19ZM2145.4,592.83l-30.5,17.61-30.51-17.62v-35.18l30.5-17.61,30.5,17.61v35.19ZM2145.4,483.64l-30.5,17.61-30.51-17.62v-35.18l30.5-17.61,30.5,17.61v35.19ZM2145.4,374.44l-30.5,17.61-30.51-17.62v-35.18l30.5-17.61,30.5,17.61v35.19ZM2145.4,265.25l-30.5,17.61-30.51-17.62v-35.18l30.5-17.61,30.5,17.61v35.19ZM2145.4,156.06l-30.5,17.61-30.51-17.62v-35.18l30.5-17.61,30.5,17.61v35.19ZM2145.4,46.86l-30.5,17.61-30.51-17.62V11.67l30.5-17.61,30.5,17.61v35.19ZM2176.8-8.02l-30.5,17.61-30.5-17.61v-35.19l30.53-17.63,30.48,17.59V-8.02ZM2114.89-115.13l30.5,17.61v35.19l-30.5,17.61-30.51-17.62v-35.18l30.5-17.61ZM2052.09-115.13l30.5,17.61v35.19l-30.5,17.61-30.51-17.62v-35.18l30.5-17.61ZM1989.28-115.13l30.5,17.61v35.19l-30.5,17.61-30.51-17.62v-35.18l30.5-17.61ZM1926.48-115.13l30.5,17.61v35.19l-30.5,17.61-30.51-17.62v-35.18l30.5-17.61ZM1863.68-115.13l30.5,17.61v35.19l-30.5,17.61-30.51-17.62v-35.18l30.5-17.61ZM1800.87-115.13l30.5,17.61v35.19l-30.5,17.61-30.51-17.62v-35.18l30.5-17.61ZM1738.07-115.13l30.5,17.61v35.19l-30.5,17.61-30.51-17.62v-35.18l30.5-17.61ZM1675.26-115.13l30.5,17.61v35.19l-30.5,17.61-30.51-17.62v-35.18l30.5-17.61ZM1612.46-115.13l30.5,17.61v35.19l-30.5,17.61-30.51-17.62v-35.18l30.5-17.61ZM1549.66-115.13l30.5,17.61v35.19l-30.5,17.61-30.51-17.62v-35.18l30.5-17.61ZM1486.85-115.13l30.5,17.61v35.19l-30.5,17.61-30.51-17.62v-35.18l30.5-17.61ZM1424.05-115.13l30.5,17.61v35.19l-30.5,17.61-30.51-17.62v-35.18l30.5-17.61ZM1361.25-115.13l30.5,17.61v35.19l-30.5,17.61-30.51-17.62v-35.18l30.5-17.61ZM1298.44-115.13l30.5,17.61v35.19l-30.5,17.61-30.51-17.62v-35.18l30.5-17.61ZM1235.64-115.13l30.5,17.61v35.19l-30.5,17.61-30.51-17.62v-35.18l30.5-17.61ZM1172.83-115.13l30.5,17.61v35.19l-30.5,17.61-30.51-17.62v-35.18l30.5-17.61ZM1110.03-115.13l30.5,17.61v35.19l-30.5,17.61-30.51-17.62v-35.18l30.5-17.61ZM1047.23-115.13l30.5,17.61v35.19l-30.5,17.61-30.51-17.62v-35.18l30.5-17.61ZM984.42-115.13l30.5,17.61v35.19l-30.5,17.61-30.51-17.62v-35.18l30.5-17.61ZM921.62-115.13l30.5,17.61v35.19l-30.5,17.61-30.51-17.62v-35.18l30.5-17.61ZM858.81-115.13l30.5,17.61v35.19l-30.5,17.61-30.51-17.62v-35.18l30.5-17.61ZM796.01-115.13l30.5,17.61v35.19l-30.5,17.61-30.51-17.62v-35.18l30.5-17.61ZM733.21-115.13l30.5,17.61v35.19l-30.5,17.61-30.51-17.62v-35.18l30.5-17.61ZM670.4-115.13l30.5,17.61v35.19l-30.5,17.61-30.51-17.62v-35.18l30.5-17.61ZM607.6-115.13l30.5,17.61v35.19l-30.5,17.61-30.51-17.62v-35.18l30.5-17.61ZM544.8-115.13l30.5,17.61v35.19l-30.5,17.61-30.51-17.62v-35.18l30.5-17.61ZM481.99-115.13l30.5,17.61v35.19l-30.5,17.61-30.51-17.62v-35.18l30.5-17.61ZM419.19-115.13l30.5,17.61v35.19l-30.5,17.61-30.51-17.62v-35.18l30.5-17.61ZM356.39-115.13l30.5,17.61v35.19l-30.5,17.61-30.51-17.62v-35.18l30.5-17.61ZM293.58-115.13l30.5,17.61v35.19l-30.5,17.61-30.51-17.62v-35.18l30.5-17.61ZM230.78-115.13l30.5,17.61v35.19l-30.5,17.61-30.51-17.62v-35.18l30.5-17.61ZM167.97-115.13l30.5,17.61v35.19l-30.5,17.61-30.51-17.62v-35.18l30.5-17.61ZM105.17-115.13l30.5,17.61v35.19l-30.5,17.61-30.51-17.62v-35.18l30.5-17.61ZM42.37-115.13l30.5,17.61v35.19l-30.5,17.61-30.51-17.62v-35.18l30.5-17.61ZM-20.44-115.13l30.5,17.61v35.19l-30.5,17.61-30.51-17.62v-35.18l30.5-17.61ZM-83.24-115.13l30.5,17.61v35.19l-30.5,17.61-30.51-17.62v-35.18l30.5-17.61ZM-176.55-97.52l30.5-17.61,30.5,17.61v35.19l-30.53,17.63-30.47-17.59v-35.22ZM-176.55,11.67l30.5-17.61,30.5,17.61v35.19l-30.53,17.63-30.47-17.59V11.67ZM-176.55,120.87l30.5-17.61,30.5,17.61v35.19l-30.53,17.63-30.47-17.6v-35.22ZM-176.55,230.06l30.5-17.61,30.5,17.61v35.19l-30.53,17.63-30.47-17.59v-35.22ZM-176.55,339.25l30.5-17.61,30.5,17.61v35.19l-30.53,17.63-30.47-17.59v-35.22ZM-176.55,448.45l30.5-17.61,30.5,17.61v35.19l-30.53,17.63-30.47-17.59v-35.22ZM-176.55,557.64l30.5-17.61,30.5,17.61v35.19l-30.53,17.63-30.47-17.59v-35.22ZM-176.55,666.83l30.5-17.61,30.5,17.61v35.19l-30.53,17.63-30.47-17.6v-35.22ZM-176.55,776.03l30.5-17.61,30.5,17.61v35.19l-30.53,17.63-30.47-17.6v-35.22ZM-176.55,885.22l30.5-17.61,30.5,17.61v35.19l-30.53,17.63-30.47-17.6v-35.22ZM-176.55,994.41l30.5-17.61,30.5,17.61v35.19l-30.53,17.63-30.47-17.6v-35.22ZM-176.55,1103.61l30.5-17.61,30.5,17.61v35.19l-30.54,17.63-30.47-17.59v-35.22ZM-114.64,1210.72l-30.5-17.61v-35.19l30.5-17.61,30.51,17.62v35.18l-30.5,17.61ZM-51.83,1210.72l-30.5-17.61v-35.19l30.5-17.61,30.51,17.62v35.18l-30.5,17.61ZM10.97,1210.72l-30.5-17.61v-35.19l30.5-17.61,30.51,17.62v35.18l-30.5,17.61ZM73.78,1210.72l-30.5-17.61v-35.19l30.5-17.61,30.51,17.62v35.18l-30.5,17.61ZM136.58,1210.72l-30.5-17.61v-35.19l30.5-17.61,30.51,17.62v35.18l-30.5,17.61ZM199.38,1210.72l-30.5-17.61v-35.19l30.5-17.61,30.51,17.62v35.18l-30.5,17.61ZM262.19,1210.72l-30.5-17.61v-35.19l30.5-17.61,30.51,17.62v35.18l-30.5,17.61ZM324.99,1210.72l-30.5-17.61v-35.19l30.5-17.61,30.51,17.62v35.18l-30.5,17.61ZM387.79,1210.72l-30.5-17.61v-35.19l30.5-17.61,30.51,17.62v35.18l-30.5,17.61ZM450.6,1210.72l-30.5-17.61v-35.19l30.5-17.61,30.51,17.62v35.18l-30.5,17.61ZM513.4,1210.72l-30.5-17.61v-35.19l30.5-17.61,30.51,17.62v35.18l-30.5,17.61ZM576.21,1210.72l-30.5-17.61v-35.19l30.5-17.61,30.51,17.62v35.18l-30.5,17.61ZM639.01,1210.72l-30.5-17.61v-35.19l30.5-17.61,30.51,17.62v35.18l-30.5,17.61ZM701.81,1210.72l-30.5-17.61v-35.19l30.5-17.61,30.51,17.62v35.18l-30.5,17.61ZM764.62,1210.72l-30.5-17.61v-35.19l30.5-17.61,30.51,17.62v35.18l-30.5,17.61ZM827.42,1210.72l-30.5-17.61v-35.19l30.5-17.61,30.51,17.62v35.18l-30.5,17.61ZM890.22,1210.72l-30.5-17.61v-35.19l30.5-17.61,30.51,17.62v35.18l-30.5,17.61ZM953.03,1210.72l-30.5-17.61v-35.19l30.5-17.61,30.51,17.62v35.18l-30.5,17.61ZM1015.83,1210.72l-30.5-17.61v-35.19l30.5-17.61,30.51,17.62v35.18l-30.5,17.61ZM1078.64,1210.72l-30.5-17.61v-35.19l30.5-17.61,30.51,17.62v35.18l-30.5,17.61ZM1141.44,1210.72l-30.5-17.61v-35.19l30.5-17.61,30.51,17.62v35.18l-30.5,17.61ZM1204.24,1210.72l-30.5-17.61v-35.19l30.5-17.61,30.51,17.62v35.18l-30.5,17.61ZM1267.05,1210.72l-30.5-17.61v-35.19l30.5-17.61,30.51,17.62v35.18l-30.5,17.61ZM1329.85,1210.72l-30.5-17.61v-35.19l30.5-17.61,30.51,17.62v35.18l-30.5,17.61ZM1392.65,1210.72l-30.5-17.61v-35.19l30.5-17.61,30.51,17.62v35.18l-30.5,17.61ZM1455.46,1210.72l-30.5-17.61v-35.19l30.5-17.61,30.51,17.62v35.18l-30.5,17.61ZM1518.26,1210.72l-30.5-17.61v-35.19l30.5-17.61,30.51,17.62v35.18l-30.5,17.61ZM1581.07,1210.72l-30.5-17.61v-35.19l30.5-17.61,30.51,17.62v35.18l-30.5,17.61ZM1643.87,1210.72l-30.5-17.61v-35.19l30.5-17.61,30.51,17.62v35.18l-30.5,17.61ZM1706.67,1210.72l-30.5-17.61v-35.19l30.5-17.61,30.51,17.62v35.18l-30.5,17.61ZM1769.48,1210.72l-30.5-17.61v-35.19l30.5-17.61,30.51,17.62v35.18l-30.5,17.61ZM1832.28,1210.72l-30.5-17.61v-35.19l30.5-17.61,30.51,17.62v35.18l-30.5,17.61ZM1895.08,1210.72l-30.5-17.61v-35.19l30.5-17.61,30.51,17.62v35.18l-30.5,17.61ZM1957.89,1210.72l-30.5-17.61v-35.19l30.5-17.61,30.51,17.62v35.18l-30.5,17.61ZM2020.69,1210.72l-30.5-17.61v-35.19l30.5-17.61,30.51,17.62v35.18l-30.5,17.61ZM2083.5,1210.72l-30.5-17.61v-35.19l30.5-17.61,30.51,17.62v35.18l-30.5,17.61ZM2176.8,1193.11l-30.5,17.61-30.5-17.61v-35.19l30.53-17.63,30.47,17.59v35.22ZM2176.8,1083.91l-30.5,17.61-30.5-17.61v-35.19l30.53-17.63,30.47,17.6v35.22ZM2176.8,974.72l-30.5,17.61-30.5-17.61v-35.19l30.53-17.63,30.47,17.6v35.22ZM2176.8,865.52l-30.5,17.61-30.5-17.61v-35.19l30.53-17.63,30.47,17.6v35.22ZM2176.8,756.33l-30.5,17.61-30.5-17.61v-35.19l30.53-17.63,30.47,17.6v35.22ZM2176.8,647.14l-30.5,17.61-30.5-17.61v-35.19l30.54-17.63,30.47,17.59v35.22ZM2176.8,537.95l-30.5,17.61-30.5-17.61v-35.19l30.53-17.63,30.47,17.59v35.22ZM2176.8,428.75l-30.5,17.61-30.5-17.61v-35.19l30.53-17.63,30.47,17.59v35.22ZM2176.8,319.56l-30.5,17.61-30.5-17.61v-35.19l30.53-17.63,30.48,17.59v35.22ZM2176.8,210.36l-30.5,17.61-30.5-17.61v-35.19l30.53-17.63,30.48,17.59v35.22ZM2176.8,101.17l-30.5,17.61-30.5-17.61v-35.19l30.53-17.63,30.47,17.59v35.22Z"/>
      </g>
      <circle class="cls-12" cx="1102.96" cy="378.99" r="9.13"/>
      <circle class="cls-9" cx="984.43" cy="473.44" r="24.43"/>
      <circle class="cls-11" cx="1023.75" cy="720.58" r="24.43" transform="translate(-209.68 934.95) rotate(-45)"/>
      <circle class="cls-10" cx="799.14" cy="891.29" r="17.42"/>
      <circle class="cls-14" cx="789.12" cy="244.02" r="17.42"/>
      <circle class="cls-2" cx="1003.86" cy="710.99" r="55.38"/>
      <circle class="cls-13" cx="1061.94" cy="676.71" r="55.38"/>
      <circle class="cls-15" cx="994.93" cy="846.35" r="27.44"/>
      <circle class="cls-4" cx="511.98" cy="676.4" r="55.38"/>
      <circle class="cls-3" cx="689.24" cy="642.12" r="34.28"/>
      <circle class="cls-18" cx="591.57" cy="446.27" r="67.28" transform="translate(23.61 922.22) rotate(-76.99)"/>
      <circle class="cls-1" cx="885.08" cy="212.49" r="67.28" transform="translate(532.86 1051.81) rotate(-80.73)"/>
      <circle class="cls-17" cx="1079.09" cy="347.04" r="67.28"/>
      <circle class="cls-8" cx="1289.68" cy="811.48" r="67.28"/>
      <circle class="cls-5" cx="1188.13" cy="845.76" r="34.28"/>
    </g>
  </g>
</svg>